<?xml version="1.0" encoding="utf-8"?>
<!-- Generator: Adobe Illustrator 26.0.1, SVG Export Plug-In . SVG Version: 6.00 Build 0)  -->
<svg version="1.1" id="Layer_1" xmlns="http://www.w3.org/2000/svg" xmlns:xlink="http://www.w3.org/1999/xlink" x="0px" y="0px"
	 viewBox="0 0 1261.51 1150.7" style="enable-background:new 0 0 1261.51 1150.7;" xml:space="preserve">
<style type="text/css">
	.st0{fill:#700902;}
	.st1{fill:#FFBB01;}
	.st2{fill:#FFFFFF;}
	.st3{fill:#FDCD2F;}
	.st4{fill:#EA7618;}
	.st5{fill:#F59D46;}
	.st6{fill:#E14023;}
	.st7{fill:#FFB776;}
	.st8{fill:#BF904C;}
	.st9{fill:#F9AD15;}
	.st10{fill:#FFEBC0;}
	.st11{fill:#ED1B26;}
</style>
<g>
	<path class="st0" d="M1115.77,483.33l107.4,369.91l-10,260H58.99L38.34,559.54c0,0,55.52-30.17,88.75-32.58L807.3,432.1
		L1115.77,483.33z"/>
	<g>
		<path class="st0" d="M807.3,432.1l308.48,51.22l107.4,369.91l-10,260H58.99L38.34,559.54c0,0,55.52-30.17,88.75-32.58L807.3,432.1
			 M807.3,403.76c-1.31,0-2.62,0.09-3.92,0.27l-679.37,94.75c-38.19,3.22-93.02,32.51-99.2,35.86c-9.46,5.14-15.19,15.2-14.79,25.96
			l20.65,553.69c0.57,15.23,13.08,27.29,28.33,27.29h1154.18c15.23,0,27.74-12.04,28.33-27.26l10-260c0.12-3.04-0.26-6.07-1.1-8.99
			L1143,475.42c-3.04-10.47-11.82-18.27-22.58-20.06l-308.48-51.22C810.4,403.88,808.85,403.76,807.3,403.76L807.3,403.76z"/>
	</g>
	<g>
		<g>
			<path class="st1" d="M181.79,840.34l-74.7,1.41L89.45,586.94c15.7-7.85,32.32-13.82,49.86-17.92c17.53-4.1,34.98-6.32,52.34-6.65
				c14.34-0.27,28.59,1.98,42.78,6.74c14.18,4.77,26.95,11.57,38.32,20.41c11.36,8.84,20.56,19.49,27.59,31.94
				c7.03,12.45,10.68,26.22,10.97,41.31c0.28,14.59-2.67,28.36-8.85,41.31c-6.17,12.95-14.45,24.37-24.83,34.25
				c-10.38,9.88-22.25,17.72-35.6,23.51c-13.35,5.79-26.95,8.81-40.78,9.07c-4.03,0.08-8.06-0.04-12.08-0.34
				c-4.03-0.3-7.95-1.04-11.74-2.23L181.79,840.34z M172.23,693.7c7.6,2.63,15.79,3.85,24.6,3.69c5.03-0.1,9.92-0.75,14.68-1.98
				c4.75-1.22,8.94-3.12,12.54-5.71c3.6-2.58,6.49-5.91,8.68-9.98c2.19-4.06,3.23-8.99,3.12-14.78c-0.1-5.53-1.45-10.22-4.04-14.08
				c-2.59-3.85-5.92-7-9.99-9.44c-4.07-2.44-8.7-4.24-13.88-5.4c-5.18-1.16-10.41-1.69-15.69-1.59c-8.55,0.16-16.33,1.69-23.31,4.59
				L172.23,693.7z"/>
			<path class="st1" d="M323.27,837.67l-2.62-278.87l80.36-1.52l2.62,278.87L323.27,837.67z"/>
			<path class="st1" d="M628.81,628.47l-103.95,131.8l102.25-1.93l1.43,75.83l-205.62,3.88l-1.41-74.7l105.08-131.82l-97.72,1.84
				l-1.42-75.46l199.96-3.77L628.81,628.47z"/>
			<path class="st1" d="M851.78,624.27l-103.95,131.8l102.25-1.93l1.43,75.83l-205.62,3.88l-1.41-74.7l105.08-131.82l-97.72,1.84
				l-1.42-75.46l199.96-3.77L851.78,624.27z"/>
			<path class="st1" d="M1064.64,764.05l-94.32,1.78l-31.65,62.87l-72.24-28.08l116.73-254.7l86.79-0.88
				c7.21,22.26,14.99,44.51,23.34,66.74c8.35,22.24,16.75,44.41,25.22,66.52c8.47,22.11,16.81,44.22,25.03,66.33
				c8.21,22.11,15.93,44.3,23.15,66.55l-79.25,20.75L1064.64,764.05z M1052.41,695.59l-27.4-71.95l-31.46,73.06L1052.41,695.59z"/>
		</g>
	</g>
	<g>
		<g>
			<g>
				<path class="st2" d="M193.95,562.35c13.56,0,27.04,2.26,40.47,6.76c14.18,4.77,26.95,11.57,38.32,20.41
					c11.36,8.84,20.56,19.49,27.59,31.94c7.03,12.45,10.68,26.22,10.97,41.31c0.28,14.59-2.67,28.36-8.85,41.31
					c-6.17,12.95-14.45,24.37-24.83,34.25c-10.38,9.88-22.25,17.72-35.6,23.51c-13.35,5.79-26.95,8.81-40.78,9.07
					c-0.81,0.02-1.63,0.02-2.44,0.02c-3.21,0-6.43-0.12-9.64-0.36c-4.03-0.3-7.95-1.04-11.74-2.23l4.38,72l-74.7,1.41L89.45,586.94
					c15.7-7.85,32.32-13.82,49.86-17.92c17.53-4.1,34.98-6.32,52.34-6.65C192.41,562.35,193.18,562.35,193.95,562.35 M195.26,697.4
					c0.52,0,1.04-0.01,1.57-0.01c5.03-0.1,9.92-0.75,14.68-1.98c4.75-1.22,8.94-3.12,12.54-5.71c3.6-2.58,6.49-5.91,8.68-9.98
					c2.19-4.06,3.23-8.99,3.12-14.78c-0.1-5.53-1.45-10.22-4.04-14.08c-2.59-3.85-5.92-7-9.99-9.44c-4.07-2.44-8.7-4.24-13.88-5.4
					c-4.77-1.07-9.59-1.6-14.44-1.6c-0.42,0-0.83,0-1.25,0.01c-8.55,0.16-16.33,1.69-23.31,4.59l3.3,54.66
					C179.37,696.17,187.05,697.4,195.26,697.4 M193.95,553.84c-0.82,0-1.65,0.01-2.47,0.02c-17.88,0.34-36.09,2.65-54.11,6.87
					c-18.1,4.24-35.5,10.49-51.72,18.6c-3.07,1.54-4.92,4.77-4.68,8.19L98.6,842.33c0.31,4.47,4.02,7.92,8.48,7.92
					c0.05,0,0.11,0,0.16,0l74.7-1.41c2.32-0.04,4.52-1.03,6.09-2.73c1.57-1.7,2.38-3.97,2.24-6.29l-3.71-60.95
					c0.65,0.07,1.3,0.13,1.95,0.18c3.4,0.26,6.86,0.39,10.28,0.39c0.87,0,1.73-0.01,2.6-0.02c14.89-0.28,29.69-3.57,44-9.77
					c14.21-6.16,27.02-14.62,38.08-25.15c11.08-10.55,20.05-22.91,26.64-36.75c6.72-14.09,9.97-29.27,9.67-45.13
					c-0.31-16.44-4.37-31.69-12.07-45.33c-7.55-13.37-17.57-24.97-29.77-34.47c-12.06-9.39-25.8-16.71-40.83-21.76
					C222.88,556.27,208.36,553.84,193.95,553.84L193.95,553.84z M177.81,644.97c4.51-1.24,9.4-1.92,14.6-2.02
					c0.36-0.01,0.73-0.01,1.09-0.01c4.2,0,8.44,0.47,12.59,1.4c4.26,0.96,8.09,2.44,11.37,4.4c3.01,1.8,5.4,4.06,7.3,6.88
					c1.67,2.49,2.52,5.6,2.59,9.49c0.08,4.28-0.63,7.85-2.1,10.59c-1.58,2.94-3.59,5.26-6.15,7.1c-2.72,1.95-5.98,3.43-9.69,4.38
					c-4.09,1.05-8.37,1.63-12.73,1.71c-0.47,0.01-0.94,0.01-1.41,0.01c-5.21,0-10.2-0.56-14.9-1.68L177.81,644.97L177.81,644.97z"/>
			</g>
			<g>
				<path class="st2" d="M401.01,557.29l2.62,278.87l-80.36,1.52l-2.62-278.87L401.01,557.29 M401.02,548.78c-0.05,0-0.11,0-0.16,0
					l-80.36,1.52c-4.66,0.09-8.39,3.92-8.34,8.58l2.62,278.87c0.02,2.27,0.95,4.44,2.58,6.02c1.59,1.54,3.72,2.41,5.93,2.41
					c0.05,0,0.11,0,0.16,0l80.36-1.52c4.66-0.09,8.39-3.92,8.34-8.58l-2.62-278.87c-0.02-2.27-0.95-4.44-2.58-6.02
					C405.35,549.64,403.23,548.78,401.02,548.78L401.02,548.78z"/>
			</g>
			<g>
				<path class="st2" d="M627.41,554.15l1.4,74.33l-103.95,131.8l102.25-1.93l1.43,75.83l-205.62,3.88l-1.41-74.7l105.08-131.82
					l-97.72,1.84l-1.42-75.46L627.41,554.15 M627.41,545.64c-0.05,0-0.11,0-0.16,0l-199.96,3.77c-2.26,0.04-4.4,0.98-5.97,2.6
					s-2.42,3.8-2.38,6.06l1.42,75.46c0.09,4.64,3.88,8.34,8.5,8.34c0.05,0,0.11,0,0.16,0l79.63-1.5l-93.81,117.67
					c-1.23,1.55-1.89,3.48-1.85,5.46l1.41,74.7c0.09,4.64,3.88,8.34,8.5,8.34c0.05,0,0.11,0,0.16,0l205.62-3.88
					c2.26-0.04,4.4-0.98,5.97-2.6c1.56-1.62,2.42-3.8,2.38-6.06l-1.43-75.83c-0.09-4.64-3.88-8.34-8.5-8.34c-0.05,0-0.11,0-0.16,0
					l-84.28,1.59l92.82-117.69c1.22-1.54,1.86-3.46,1.83-5.43l-1.4-74.33C635.82,549.35,632.03,545.64,627.41,545.64L627.41,545.64z
					"/>
			</g>
			<g>
				<path class="st2" d="M850.38,549.94l1.4,74.33l-103.95,131.8l102.25-1.93l1.43,75.83l-205.62,3.88l-1.41-74.7l105.08-131.82
					l-97.72,1.84l-1.42-75.46L850.38,549.94 M850.39,541.44c-0.05,0-0.11,0-0.16,0l-199.96,3.77c-2.25,0.04-4.4,0.98-5.97,2.6
					c-1.56,1.62-2.42,3.8-2.38,6.06l1.42,75.46c0.09,4.64,3.88,8.34,8.5,8.34c0.05,0,0.11,0,0.16,0l79.63-1.5l-93.8,117.67
					c-1.23,1.55-1.89,3.48-1.85,5.46l1.41,74.7c0.04,2.26,0.98,4.4,2.6,5.97c1.59,1.53,3.7,2.38,5.9,2.38c0.05,0,0.11,0,0.16,0
					l205.62-3.88c4.7-0.09,8.43-3.97,8.34-8.66l-1.43-75.83c-0.04-2.26-0.98-4.4-2.6-5.97c-1.59-1.53-3.7-2.38-5.9-2.38
					c-0.05,0-0.11,0-0.16,0l-84.28,1.59l92.82-117.69c1.22-1.54,1.86-3.46,1.83-5.43l-1.4-74.33
					C858.8,545.14,855.01,541.44,850.39,541.44L850.39,541.44z"/>
			</g>
			<g>
				<path class="st2" d="M1069.95,545.05c7.21,22.26,14.99,44.51,23.34,66.74c8.35,22.24,16.75,44.41,25.22,66.52
					c8.47,22.11,16.81,44.22,25.03,66.33c8.21,22.11,15.93,44.3,23.15,66.55l-79.25,20.75l-22.79-67.89l-94.32,1.78l-31.65,62.87
					l-72.24-28.08l116.73-254.7L1069.95,545.05 M993.55,696.7l58.86-1.11l-27.4-71.95L993.55,696.7 M1069.95,536.54
					c-0.03,0-0.06,0-0.09,0l-86.79,0.88c-3.29,0.03-6.27,1.97-7.64,4.96L858.7,797.09c-0.98,2.13-1.03,4.57-0.15,6.74
					s2.62,3.88,4.8,4.73l72.24,28.08c1.01,0.39,2.05,0.58,3.08,0.58c3.13,0,6.11-1.73,7.6-4.68l29.34-58.29l82.96-1.56l20.81,61.97
					c1.19,3.53,4.49,5.8,8.06,5.8c0.71,0,1.44-0.09,2.16-0.28l79.25-20.75c2.26-0.59,4.18-2.09,5.31-4.14
					c1.12-2.05,1.35-4.48,0.63-6.7c-7.2-22.22-15.03-44.72-23.26-66.89c-8.19-22.04-16.62-44.38-25.06-66.41
					c-8.25-21.53-16.73-43.9-25.2-66.46c-8.27-22.04-16.08-44.37-23.21-66.38C1076.9,538.92,1073.63,536.54,1069.95,536.54
					L1069.95,536.54z M1006.58,687.95l17.95-41.68l15.63,41.05L1006.58,687.95L1006.58,687.95z"/>
			</g>
		</g>
	</g>
	<g>
		<g>
			<path class="st3" d="M822.8,115.87c-60.38-24-151.65-35.2-221.19-31.66c-69.54,3.54-171.37,35.48-225.89,70.84
				c-110.74,71.81-144.24,234.58-137.05,375.87c0.1,1.96,0.22,3.91,0.35,5.87c34.43,13.47,110.44,38.08,146.84,9.57
				c47.91-37.52,121.35,30.02,158.43-2.64c37.07-32.64,45.91-59.75,115.4-44.51c69.49,15.23,164.16,41.86,196.57,13.06
				c28.8-25.6,103.95-41.4,145.5-27.49C1001.95,487.21,1038.36,201.56,822.8,115.87z"/>
		</g>
		<g>
			<path class="st0" d="M338.5,566.34c-35.45,0-75.61-12.95-101.94-23.25c-2.44-0.96-4.11-3.24-4.29-5.85
				c-0.13-1.99-0.25-3.97-0.35-5.97c-2.77-54.5-0.75-136.28,24.61-216.38c23.95-75.65,62.82-131.34,115.52-165.51
				c55.59-36.05,158.42-68.32,229.22-71.92c75.94-3.87,165.97,9.05,224.03,32.13c49.87,19.83,90.59,51.85,121.01,95.17
				c24.3,34.6,42.07,76.4,52.83,124.25c19.05,84.72,9.37,156.7,9.23,157.27c-0.76,3.26-3.79,5.52-7.13,5.26
				c-0.7-0.05-1.37-0.22-2-0.47c-41.02-13.48-112.66,3.29-138.49,26.25c-31.11,27.65-108.35,9.97-176.5-5.63
				c-9.09-2.08-17.67-4.05-26.01-5.87c-53.43-11.72-67.74,2.43-91.46,25.89c-5.26,5.2-11.23,11.1-18.03,17.09
				c-20.52,18.07-49.64,9.88-77.8,1.95c-28.84-8.11-58.67-16.51-80.93,0.93C376.42,562.34,358.18,566.34,338.5,566.34z
				 M245.51,532.04c32.92,12.49,103.53,34.56,136.19,9c27.67-21.67,62.34-11.91,92.94-3.3c26.94,7.58,50.2,14.12,65.2,0.92
				c6.5-5.73,12.07-11.23,17.45-16.56c25.11-24.83,43.26-42.77,103.87-29.48c8.41,1.84,17.02,3.81,26.14,5.9
				c61.74,14.13,138.59,31.72,164.49,8.71c29.77-26.47,100.63-41.16,144.13-31.09c3.82-44.5,13.93-278.62-175.6-353.96
				c-55.54-22.08-145.31-34.9-218.34-31.19c-68.8,3.5-168.64,34.79-222.55,69.76c-137.24,89-137.25,305.59-133.98,369.85
				C245.45,531.07,245.48,531.55,245.51,532.04z"/>
		</g>
		<g>
			<g>
				<path class="st4" d="M351.16,95.45l0.03,0.06C197.25,195.16,116.96,365.8,125.49,536.67c25.05-1.27,44.65-2.27,79.56-4.04
					c53.7-22.64,12.79-49.5,82.8-203.53c39.55-87.01,112.19-107.48,110.37-160.95l-3.77-5.82c46.46,35.19,49.24-13.68,217.66-30.06
					c95.13-9.26,149.18,43.42,194.58,15.1l3.16-6.17c-7.24,57.83,36.46,35.82,134.86,173.48c55.58,77.75,36.99,150.89,84.21,176.06
					l6.92-0.35c-0.01,0.01-0.02,0.01-0.04,0.02l79.58-4.05c0-0.01,0-0.01,0-0.02l-0.06,0c-9.31-183.16-116.96-338-269.21-416.06
					l-0.03,0.06C682.82-13.18,494.89,2.62,351.16,95.45z"/>
			</g>
			<g>
				<path class="st5" d="M596.55,41.9C337.19,55.09,137.63,276.03,150.82,535.38c19.61-1,64.41,2.61,88.2,1.4
					c-2.53-38.33-21.18-53.66,48.83-207.7c39.55-87.01,112.19-107.48,110.37-160.95l-3.77-5.82
					c46.46,35.19,49.24-13.68,217.66-30.06c95.13-9.26,149.18,43.42,194.58,15.1l3.16-6.17c-7.24,57.83,36.46,35.82,134.86,173.48
					c55.58,77.75,40.56,149.81,62.1,176.21l29.04-0.51c-0.01,0.01-0.02,0.01-0.04,0.02l54.22-2.76c0,0,0-0.01,0-0.01
					c-4.39-86.41-31.85-166.18-76.1-233.66C925.36,118.91,769.5,33.11,596.55,41.9z"/>
			</g>
			<g>
				<path class="st4" d="M1039.89,490.19l55.47-2.82c-0.77-14.95-3.64-29.82-8.62-44.61
					C1086.58,444.05,1081.34,487.77,1039.89,490.19z"/>
			</g>
			<g>
				<path class="st4" d="M200.97,532.83c0.14-0.01,0.27-0.03,0.42-0.04c-41.97,2.14-51.63-41.38-51.84-42.42
					c-3.47,15.17-4.82,30.26-4.04,45.27C165.05,534.66,176.9,534.06,200.97,532.83z"/>
			</g>
			<g>
				<g>
					<g>
						<path class="st4" d="M403.29,93.15c-0.8,0.71-33.65,30.84-10.81,66.11c-22.78-35.17-63.54-17.71-64.74-17.2
							C348.42,118.59,373.61,102.29,403.29,93.15z"/>
					</g>
				</g>
			</g>
			<g>
				<g>
					<g>
						<path class="st4" d="M874.17,114.28c-1.01-0.33-43.53-13.73-62.66,23.69c19.07-37.31-16.43-63.88-17.48-64.67
							C824.7,79.49,851.41,93.15,874.17,114.28z"/>
					</g>
				</g>
			</g>
			<g>
				
					<rect x="492.58" y="275.87" transform="matrix(0.4698 -0.8828 0.8828 0.4698 139.1965 797.0333)" class="st0" width="481.08" height="13.53"/>
			</g>
			<g>
				<g>
					
						<ellipse transform="matrix(0.7071 -0.7071 0.7071 0.7071 -205.795 406.3808)" class="st6" cx="387.65" cy="451.61" rx="38.02" ry="38.02"/>
				</g>
			</g>
			<g>
				<g>
					
						<ellipse transform="matrix(0.7071 -0.7071 0.7071 0.7071 36.6637 602.6157)" class="st6" cx="745.75" cy="257.05" rx="38.02" ry="38.02"/>
				</g>
			</g>
			<g>
				<g>
					
						<ellipse transform="matrix(0.7071 -0.7071 0.7071 0.7071 -23.2141 514.9383)" class="st6" cx="609.98" cy="285.49" rx="38.02" ry="38.02"/>
				</g>
			</g>
			<g>
				<g>
					
						<ellipse transform="matrix(0.7071 -0.7071 0.7071 0.7071 5.945 430.2222)" class="st6" cx="522.3" cy="207.93" rx="38.02" ry="38.02"/>
				</g>
			</g>
			<g>
				<g>
					
						<ellipse transform="matrix(0.7071 -0.7071 0.7071 0.7071 -92.4525 369.1966)" class="st6" cx="399.43" cy="296.2" rx="38.02" ry="38.02"/>
				</g>
			</g>
			<g>
				<g>
					<path class="st0" d="M431.93,462.59c-4.72,19-21.43,33.53-41.97,34.58c-12.17,0.62-23.85-3.54-32.9-11.71
						c-9.04-8.17-14.36-19.37-14.98-31.54c-0.62-12.17,3.54-23.86,11.71-32.9c8.17-9.04,19.37-14.36,31.54-14.98l0,0
						c12.17-0.62,23.85,3.54,32.9,11.71c9.04,8.17,14.36,19.37,14.98,31.54C433.44,453.88,432.99,458.35,431.93,462.59z
						 M358.13,444.23c-0.72,2.88-1.01,5.88-0.85,8.92c0.41,8.11,3.96,15.58,9.99,21.03c6.03,5.44,13.82,8.22,21.93,7.8
						c16.75-0.85,29.68-15.16,28.83-31.92c-0.41-8.11-3.96-15.58-9.99-21.03c-6.03-5.45-13.82-8.22-21.93-7.8l0,0
						c-8.11,0.41-15.58,3.96-21.02,9.99C361.68,434.99,359.32,439.44,358.13,444.23z"/>
				</g>
			</g>
			<g>
				<g>
					<path class="st0" d="M790.03,268.12c-1.79,7.18-5.32,13.86-10.42,19.51c-8.17,9.04-19.37,14.36-31.54,14.98
						c-12.17,0.62-23.85-3.54-32.9-11.71c-9.04-8.17-14.36-19.37-14.98-31.54c-0.62-12.17,3.54-23.86,11.71-32.9
						c8.17-9.04,19.37-14.36,31.54-14.98l0,0c25.12-1.28,46.6,18.12,47.88,43.24C791.55,259.3,791.11,263.8,790.03,268.12z
						 M716.23,249.67c-0.72,2.88-1.01,5.88-0.85,8.92c0.41,8.11,3.96,15.58,9.99,21.03c6.03,5.45,13.82,8.22,21.93,7.8
						c8.11-0.41,15.58-3.96,21.02-9.99c5.45-6.03,8.22-13.82,7.8-21.93c-0.85-16.75-15.17-29.68-31.92-28.83l0,0
						c-8.11,0.41-15.58,3.96-21.02,9.99C719.78,240.43,717.43,244.88,716.23,249.67z"/>
				</g>
			</g>
			<g>
				<g>
					<path class="st0" d="M654.26,296.56c-1.79,7.18-5.32,13.86-10.42,19.51c-8.17,9.04-19.37,14.36-31.54,14.98
						c-25.12,1.28-46.6-18.12-47.88-43.24c-1.28-25.12,18.12-46.6,43.25-47.88l0,0c12.17-0.62,23.85,3.54,32.9,11.71
						c9.04,8.17,14.36,19.37,14.98,31.54C655.77,287.74,655.33,292.24,654.26,296.56z M580.46,278.17c-0.7,2.83-1.01,5.81-0.85,8.87
						c0.85,16.75,15.17,29.68,31.92,28.83c8.11-0.41,15.58-3.96,21.02-9.99c5.45-6.03,8.22-13.82,7.8-21.93
						c-0.41-8.11-3.96-15.58-9.99-21.03c-6.03-5.45-13.82-8.22-21.93-7.8l0,0C594.75,255.81,583.61,265.51,580.46,278.17z"/>
				</g>
			</g>
			<g>
				<g>
					<path class="st0" d="M566.58,219c-1.79,7.18-5.32,13.86-10.42,19.51c-8.17,9.04-19.37,14.36-31.54,14.98
						c-12.17,0.62-23.85-3.54-32.9-11.71c-9.04-8.17-14.36-19.37-14.98-31.54c-1.28-25.12,18.12-46.6,43.25-47.88l0,0
						c12.17-0.62,23.85,3.54,32.9,11.71c9.04,8.17,14.36,19.37,14.98,31.54C568.09,210.19,567.65,214.69,566.58,219z M492.78,200.61
						c-0.7,2.83-1.01,5.81-0.85,8.87c0.41,8.11,3.96,15.58,9.99,21.03c6.03,5.44,13.82,8.22,21.93,7.8
						c8.11-0.41,15.58-3.96,21.02-9.99c5.45-6.03,8.22-13.82,7.8-21.93c-0.41-8.11-3.96-15.58-9.99-21.03
						c-6.03-5.45-13.82-8.22-21.93-7.8l0,0C507.06,178.26,495.92,187.95,492.78,200.61z"/>
				</g>
			</g>
			<g>
				<g>
					<path class="st0" d="M443.72,307.18c-4.72,19-21.43,33.53-41.97,34.58c-12.17,0.62-23.85-3.54-32.9-11.71
						c-9.04-8.17-14.36-19.37-14.98-31.54c-0.62-12.17,3.54-23.86,11.71-32.9c8.17-9.04,19.37-14.36,31.54-14.98
						c25.12-1.28,46.6,18.12,47.88,43.24C445.23,298.47,444.77,302.94,443.72,307.18z M369.91,288.82
						c-0.72,2.88-1.01,5.88-0.85,8.92c0.41,8.11,3.96,15.58,9.99,21.03c6.03,5.45,13.82,8.22,21.93,7.8
						c16.75-0.85,29.68-15.17,28.83-31.92c-0.85-16.75-15.17-29.68-31.92-28.83c-8.11,0.41-15.58,3.96-21.02,9.99
						C373.46,279.58,371.11,284.03,369.91,288.82z"/>
				</g>
			</g>
			<g>
				<g>
					<g>
						<path class="st7" d="M493.24,75.81c-2.92,0.77-1.82,4.15,1.22,3.73c35.3-4.85,94.57-4.77,140.3-4.44
							c89.44,0.65,152.59,6.13,129.55-4.81C762.67,69.51,627.47,40.4,493.24,75.81z"/>
					</g>
				</g>
				<g>
					<g>
						<path class="st7" d="M452.76,84.56c-12.98,4.42-22.5,9.78-21.26,11.95c1.24,2.18,12.78,0.36,25.76-4.07
							c12.98-4.42,22.5-9.78,21.26-11.95C477.28,78.31,465.75,80.13,452.76,84.56z"/>
					</g>
				</g>
			</g>
			<g>
				<g>
					<g>
						<path class="st8" d="M782.12,330.55c6.15-0.31,11.38,4.42,11.69,10.56c0.31,6.15-4.42,11.38-10.56,11.69
							c-6.15,0.31-11.38-4.42-11.69-10.56C771.25,336.1,775.98,330.87,782.12,330.55z"/>
					</g>
				</g>
				<g>
					<g>
						<path class="st0" d="M771.87,338.99c1.15-4.64,5.23-8.18,10.25-8.44c6.15-0.31,11.38,4.42,11.69,10.56
							c0.06,1.12-0.05,2.22-0.31,3.26c-1.15,4.64-5.23,8.18-10.25,8.44c-6.15,0.31-11.38-4.42-11.69-10.56
							C771.5,341.12,771.61,340.03,771.87,338.99 M757.11,335.32L757.11,335.32c-0.62,2.51-0.87,5.1-0.74,7.7
							c0.74,14.51,13.14,25.72,27.66,24.98c11.68-0.59,21.42-8.61,24.24-19.96c0.62-2.51,0.87-5.1,0.74-7.7
							c-0.74-14.51-13.14-25.72-27.66-24.98C769.67,315.96,759.93,323.98,757.11,335.32L757.11,335.32z"/>
					</g>
				</g>
			</g>
			<g>
				<g>
					<g>
						<path class="st8" d="M923.32,392.07c6.15-0.31,11.38,4.42,11.69,10.56c0.31,6.15-4.42,11.38-10.56,11.69
							c-6.15,0.31-11.38-4.42-11.69-10.56C912.44,397.62,917.17,392.39,923.32,392.07z"/>
					</g>
				</g>
				<g>
					<g>
						<path class="st0" d="M913.07,400.51c1.15-4.64,5.23-8.18,10.25-8.44c6.15-0.31,11.38,4.42,11.69,10.56
							c0.06,1.12-0.05,2.22-0.31,3.26c-1.15,4.64-5.23,8.18-10.25,8.44c-6.15,0.31-11.38-4.42-11.69-10.56
							C912.7,402.64,912.81,401.55,913.07,400.51 M898.31,396.84L898.31,396.84c-0.62,2.51-0.87,5.1-0.74,7.7
							c0.74,14.51,13.14,25.72,27.66,24.98c11.68-0.59,21.42-8.61,24.24-19.96c0.62-2.51,0.87-5.1,0.74-7.7
							c-0.74-14.51-13.14-25.72-27.66-24.98C910.87,377.48,901.13,385.5,898.31,396.84L898.31,396.84z"/>
					</g>
				</g>
			</g>
			<g>
				<g>
					<g>
						<path class="st8" d="M624.88,378.99c6.15-0.31,11.38,4.42,11.69,10.56c0.31,6.15-4.42,11.38-10.56,11.69
							c-6.15,0.31-11.38-4.42-11.69-10.56C614,384.54,618.73,379.3,624.88,378.99z"/>
					</g>
				</g>
				<g>
					<g>
						<path class="st0" d="M614.63,387.43c1.15-4.64,5.23-8.18,10.25-8.44c6.15-0.31,11.38,4.42,11.69,10.56
							c0.06,1.12-0.05,2.22-0.31,3.26c-1.15,4.64-5.23,8.18-10.25,8.44c-6.15,0.31-11.38-4.42-11.69-10.56
							C614.26,389.56,614.37,388.46,614.63,387.43 M599.87,383.76L599.87,383.76c-0.62,2.51-0.87,5.1-0.74,7.7
							c0.36,7.03,3.43,13.5,8.65,18.22c5.22,4.72,11.97,7.12,19,6.76c11.68-0.59,21.42-8.61,24.24-19.96
							c0.62-2.51,0.87-5.1,0.74-7.7c-0.74-14.51-13.14-25.72-27.66-24.98C612.43,364.39,602.69,372.41,599.87,383.76L599.87,383.76z
							"/>
					</g>
				</g>
			</g>
			<g>
				<g>
					<g>
						
							<ellipse transform="matrix(0.9665 -0.2568 0.2568 0.9665 -112.1827 148.88)" class="st8" cx="513.88" cy="503.92" rx="11.14" ry="11.14"/>
					</g>
				</g>
				<g>
					<g>
						<path class="st0" d="M503.06,501.22c1.15-4.64,5.23-8.18,10.25-8.44c6.15-0.31,11.38,4.42,11.69,10.56
							c0.06,1.12-0.05,2.22-0.31,3.26c-1.15,4.64-5.23,8.18-10.25,8.44c-6.15,0.31-11.38-4.42-11.69-10.56
							C502.69,503.36,502.8,502.26,503.06,501.22 M488.3,497.55L488.3,497.55c-0.62,2.51-0.87,5.1-0.74,7.7
							c0.36,7.03,3.43,13.5,8.65,18.22c5.22,4.72,11.97,7.12,19,6.76c11.68-0.59,21.42-8.61,24.24-19.96
							c0.62-2.51,0.87-5.1,0.74-7.7c-0.74-14.51-13.14-25.72-27.66-24.98C500.86,478.19,491.12,486.21,488.3,497.55L488.3,497.55z"
							/>
					</g>
				</g>
			</g>
			<g>
				<g>
					<g>
						<path class="st8" d="M641.1,169.46c6.15-0.31,11.38,4.42,11.69,10.56c0.31,6.15-4.42,11.38-10.56,11.69
							c-6.15,0.31-11.38-4.42-11.69-10.56C630.23,175,634.95,169.77,641.1,169.46z"/>
					</g>
				</g>
				<g>
					<g>
						<path class="st0" d="M630.85,177.89c1.15-4.64,5.23-8.18,10.25-8.44c6.15-0.31,11.38,4.42,11.69,10.56
							c0.06,1.12-0.05,2.22-0.31,3.26c-1.15,4.64-5.23,8.18-10.25,8.44c-6.15,0.31-11.38-4.42-11.69-10.56
							C630.48,180.03,630.59,178.93,630.85,177.89 M616.09,174.22L616.09,174.22c-0.62,2.51-0.87,5.11-0.74,7.7
							c0.74,14.51,13.14,25.72,27.66,24.98c11.68-0.59,21.42-8.61,24.24-19.96c0.62-2.51,0.87-5.1,0.74-7.7
							c-0.74-14.51-13.14-25.72-27.66-24.98C628.65,154.86,618.91,162.88,616.09,174.22L616.09,174.22z"/>
					</g>
				</g>
			</g>
			<g>
				<g>
					<g>
						<path class="st8" d="M327.92,364.81c6.15-0.31,11.38,4.42,11.69,10.56c0.31,6.15-4.42,11.38-10.56,11.69
							c-6.15,0.31-11.38-4.42-11.69-10.56C317.05,370.36,321.78,365.12,327.92,364.81z"/>
					</g>
				</g>
				<g>
					<g>
						<path class="st0" d="M317.67,373.25c1.15-4.64,5.23-8.18,10.25-8.44c6.15-0.31,11.38,4.42,11.69,10.56
							c0.06,1.12-0.05,2.22-0.31,3.26c-1.15,4.64-5.23,8.18-10.25,8.44c-6.15,0.31-11.38-4.42-11.69-10.56
							C317.3,375.38,317.42,374.28,317.67,373.25 M302.91,369.58L302.91,369.58L302.91,369.58c-0.62,2.52-0.87,5.11-0.74,7.7
							c0.36,7.03,3.43,13.5,8.65,18.22c5.22,4.72,11.97,7.12,19,6.76c11.68-0.59,21.42-8.61,24.24-19.96
							c0.62-2.51,0.87-5.1,0.74-7.7c-0.36-7.03-3.43-13.5-8.65-18.22c-5.22-4.72-11.97-7.12-19-6.76
							C315.47,350.21,305.73,358.23,302.91,369.58L302.91,369.58z"/>
					</g>
				</g>
			</g>
			<g>
				<g>
					<path class="st9" d="M706.82,178.53c-6.65,3.09-10.72,10.22-9.21,17.4c0.82,3.91,3.23,7.56,9.18,8.38
						c13.88,1.92,20.8-3.94,17.52-16.77C721.89,178.05,714.77,174.83,706.82,178.53z"/>
				</g>
			</g>
			<g>
				<g>
					<path class="st9" d="M674.96,309.32c-5.45,2.53-8.79,8.38-7.56,14.27c0.67,3.21,2.65,6.2,7.53,6.88
						c11.38,1.57,17.06-3.23,14.37-13.75C687.32,308.93,681.48,306.29,674.96,309.32z"/>
				</g>
			</g>
			<g>
				<g>
					<path class="st9" d="M807.33,406.32c-6.65,3.09-10.72,10.22-9.21,17.4c0.82,3.91,3.23,7.56,9.18,8.38
						c13.88,1.92,20.8-3.94,17.52-16.77C822.4,405.85,815.28,402.63,807.33,406.32z"/>
				</g>
			</g>
			<g>
				<g>
					<path class="st9" d="M683,202.77c-2.67,1.37-4.3,4.55-3.68,7.76c0.34,1.75,1.32,3.39,3.72,3.77c5.6,0.89,8.38-1.71,7.03-7.46
						C689.08,202.59,686.2,201.14,683,202.77z"/>
				</g>
			</g>
			<g>
				<g>
					<path class="st9" d="M313.31,487.81c-2.67,1.37-4.3,4.55-3.68,7.76c0.34,1.75,1.32,3.39,3.72,3.77
						c5.6,0.89,8.38-1.71,7.03-7.46C319.38,487.63,316.5,486.18,313.31,487.81z"/>
				</g>
			</g>
			<g>
				<g>
					<path class="st9" d="M289.87,439.25c-4.76,2.44-7.66,8.1-6.55,13.83c0.6,3.12,2.35,6.04,6.63,6.72
						c9.98,1.59,14.93-3.05,12.52-13.29C300.69,438.93,295.56,436.34,289.87,439.25z"/>
				</g>
			</g>
			<g>
				<g>
					<path class="st9" d="M439.94,373.11c-2.67,1.37-4.3,4.55-3.68,7.76c0.34,1.75,1.32,3.39,3.72,3.77
						c5.6,0.89,8.38-1.71,7.03-7.46C446.02,372.93,443.14,371.47,439.94,373.11z"/>
				</g>
			</g>
			<g>
				<g>
					<path class="st9" d="M469.22,434.09c-5.18,2.65-8.32,8.81-7.12,15.03c0.66,3.39,2.56,6.56,7.21,7.3
						c10.85,1.72,16.23-3.32,13.61-14.45C480.99,433.74,475.41,430.92,469.22,434.09z"/>
				</g>
			</g>
			<g>
				<g>
					<path class="st2" d="M471.11,344.43c-3.02,1.53-4.86,5.08-4.16,8.66c0.38,1.95,1.49,3.78,4.2,4.2
						c6.33,0.99,9.47-1.92,7.95-8.33C477.97,344.23,474.72,342.61,471.11,344.43z"/>
				</g>
			</g>
			<g>
				<g>
					<path class="st2" d="M381.68,366.94c-3.02,1.53-4.86,5.08-4.16,8.66c0.38,1.95,1.49,3.78,4.2,4.2
						c6.33,0.99,9.47-1.92,7.95-8.33C388.55,366.74,385.29,365.11,381.68,366.94z"/>
				</g>
			</g>
			<g>
				<g>
					<path class="st2" d="M271.03,484.92c-3.02,1.53-4.86,5.08-4.16,8.66c0.38,1.95,1.49,3.78,4.2,4.2
						c6.33,0.99,9.47-1.92,7.95-8.33C277.9,484.72,274.64,483.1,271.03,484.92z"/>
				</g>
			</g>
			<g>
				<g>
					<path class="st2" d="M525.32,300.03c-3.02,1.53-4.86,5.08-4.16,8.66c0.38,1.95,1.49,3.78,4.2,4.2
						c6.33,0.99,9.47-1.92,7.95-8.33C532.19,299.83,528.93,298.21,525.32,300.03z"/>
				</g>
			</g>
			<g>
				<g>
					<path class="st2" d="M655.96,352.99c-3.02,1.53-4.86,5.08-4.16,8.66c0.38,1.95,1.49,3.78,4.2,4.2
						c6.33,0.99,9.47-1.92,7.95-8.33C662.83,352.79,659.58,351.17,655.96,352.99z"/>
				</g>
			</g>
			<g>
				<g>
					<path class="st2" d="M444.89,474.29c-3.02,1.53-4.86,5.08-4.16,8.66c0.38,1.95,1.49,3.78,4.2,4.2
						c6.33,0.99,9.47-1.92,7.95-8.33C451.76,474.09,448.51,472.47,444.89,474.29z"/>
				</g>
			</g>
			<g>
				<g>
					<path class="st2" d="M855.22,408.57c-2.33,1.18-3.75,3.91-3.21,6.68c0.29,1.5,1.15,2.92,3.24,3.24
						c4.88,0.76,7.3-1.48,6.13-6.42C860.51,408.41,858.01,407.16,855.22,408.57z"/>
				</g>
			</g>
			<g>
				<g>
					<path class="st2" d="M811.53,275.12c-3.02,1.53-4.86,5.08-4.16,8.66c0.38,1.95,1.49,3.78,4.2,4.2
						c6.33,0.99,9.47-1.92,7.95-8.33C818.4,274.92,815.14,273.3,811.53,275.12z"/>
				</g>
			</g>
			<g>
				<g>
					<path class="st2" d="M596.69,206.51c-3.02,1.53-4.86,5.08-4.16,8.66c0.38,1.95,1.49,3.78,4.2,4.2
						c6.33,0.99,9.47-1.92,7.95-8.33C603.56,206.31,600.31,204.68,596.69,206.51z"/>
				</g>
			</g>
			<g>
				<g>
					<path class="st2" d="M672.91,254.46c-3.02,1.53-4.86,5.08-4.16,8.66c0.38,1.95,1.49,3.78,4.2,4.2
						c6.33,0.99,9.47-1.92,7.95-8.33C679.78,254.26,676.53,252.64,672.91,254.46z"/>
				</g>
			</g>
			<g>
				<g>
					<path class="st2" d="M749.03,182.7c-3.02,1.53-4.86,5.08-4.16,8.66c0.38,1.95,1.49,3.78,4.2,4.2c6.33,0.99,9.47-1.92,7.95-8.33
						C755.9,182.5,752.65,180.88,749.03,182.7z"/>
				</g>
			</g>
			<g>
				<g>
					<path class="st2" d="M742.47,359.75c-3.02,1.53-4.86,5.08-4.16,8.66c0.38,1.95,1.49,3.78,4.2,4.2
						c6.33,0.99,9.47-1.92,7.95-8.33C749.34,359.55,746.08,357.92,742.47,359.75z"/>
				</g>
			</g>
			<g>
				<g>
					<path class="st9" d="M816.79,374.75c-2.67,1.37-4.3,4.55-3.68,7.76c0.34,1.75,1.32,3.39,3.72,3.77
						c5.6,0.89,8.38-1.71,7.03-7.46C822.86,374.57,819.99,373.11,816.79,374.75z"/>
				</g>
			</g>
			<g>
				<g>
					<path class="st9" d="M814.84,244.31c-4.37,2.24-7.03,7.44-6.01,12.69c0.55,2.86,2.16,5.54,6.09,6.17
						c9.16,1.46,13.71-2.8,11.5-12.21C824.78,244.02,820.07,241.63,814.84,244.31z"/>
				</g>
			</g>
			<g>
				<g>
					<path class="st9" d="M679.13,469.21c-2.67,1.37-4.3,4.55-3.68,7.76c0.34,1.75,1.32,3.39,3.72,3.77
						c5.6,0.89,8.38-1.71,7.03-7.46C685.21,469.03,682.33,467.57,679.13,469.21z"/>
				</g>
			</g>
			<g>
				<g>
					<path class="st9" d="M543.49,286.72c-1.89,0.96-3.03,3.21-2.59,5.47c0.24,1.23,0.93,2.39,2.62,2.66
						c3.95,0.63,5.91-1.21,4.96-5.26C547.77,286.59,545.74,285.56,543.49,286.72z"/>
				</g>
			</g>
			<g>
				<g>
					<path class="st9" d="M583.53,336.68c-1.89,0.96-3.03,3.21-2.59,5.47c0.24,1.23,0.93,2.39,2.62,2.66
						c3.95,0.63,5.91-1.21,4.96-5.26C587.81,336.55,585.78,335.52,583.53,336.68z"/>
				</g>
			</g>
			<g>
				<g>
					<path class="st9" d="M715.64,370.4c-1.89,0.96-3.03,3.21-2.59,5.47c0.24,1.23,0.93,2.39,2.62,2.66
						c3.95,0.63,5.91-1.21,4.96-5.26C719.93,370.27,717.9,369.24,715.64,370.4z"/>
				</g>
			</g>
			<g>
				<path class="st0" d="M874.17,116.13c-0.41,0-0.82-0.13-1.16-0.41c-7.79-6.3-24.21-1.85-24.37-1.8c-0.99,0.27-2-0.3-2.27-1.28
					c-0.27-0.98,0.3-2,1.28-2.27c0.75-0.21,18.41-5.02,27.68,2.49c0.79,0.64,0.92,1.8,0.27,2.59
					C875.24,115.89,874.71,116.13,874.17,116.13z"/>
			</g>
			<g>
				<path class="st0" d="M931.3,160.57c-0.44,0-0.88-0.16-1.23-0.47c-5.85-5.25-41.92-32.89-42.29-33.17
					c-0.81-0.62-0.96-1.78-0.34-2.59c0.62-0.81,1.78-0.96,2.59-0.34c1.49,1.14,36.55,28.01,42.51,33.36
					c0.76,0.68,0.82,1.85,0.14,2.61C932.31,160.36,931.81,160.57,931.3,160.57z"/>
			</g>
			<g>
				<path class="st0" d="M1062.67,485.13c-0.57,0-1.13-0.26-1.49-0.76c-0.6-0.82-0.42-1.98,0.4-2.58
					c0.17-0.12,16.63-12.33,21.53-30.86c0.26-0.98,1.27-1.57,2.26-1.31c0.98,0.26,1.57,1.27,1.31,2.26
					c-5.25,19.83-22.2,32.37-22.92,32.9C1063.43,485.01,1063.04,485.13,1062.67,485.13z"/>
			</g>
			<g>
				<path class="st0" d="M558.86,47.17c-0.93,0-1.74-0.71-1.83-1.66c-0.1-1.01,0.64-1.92,1.65-2.02c3.2-0.32,78.64-7.88,110.56-2.53
					c1.01,0.17,1.68,1.12,1.51,2.12c-0.17,1.01-1.13,1.68-2.12,1.51c-31.43-5.27-108.8,2.48-109.58,2.56
					C558.99,47.16,558.93,47.17,558.86,47.17z"/>
			</g>
			<g>
				<path class="st0" d="M728.44,55.59c-0.38,0-0.76-0.12-1.09-0.36c-5.98-4.37-27.25-6.27-34.94-6.64
					c-1.02-0.05-1.8-0.91-1.76-1.93c0.05-1.02,0.91-1.8,1.93-1.76c1.17,0.06,28.85,1.43,36.94,7.34c0.82,0.6,1,1.76,0.4,2.58
					C729.57,55.33,729.01,55.59,728.44,55.59z"/>
			</g>
			<g>
				<path class="st0" d="M317.76,153.48c-0.51,0-1.01-0.21-1.38-0.61c-0.68-0.76-0.62-1.93,0.14-2.61
					c21.77-19.5,41.81-14.59,42.65-14.37c0.99,0.26,1.58,1.26,1.32,2.25c-0.26,0.98-1.26,1.58-2.24,1.32v0
					c-0.19-0.05-19.04-4.56-39.26,13.54C318.64,153.32,318.2,153.48,317.76,153.48z"/>
			</g>
			<g>
				<path class="st0" d="M243.64,232.03c-0.36,0-0.73-0.11-1.05-0.33c-0.84-0.58-1.04-1.73-0.46-2.57
					c11.71-16.8,58.13-64.32,60.1-66.33c0.71-0.73,1.88-0.74,2.61-0.03c0.73,0.71,0.74,1.88,0.03,2.61
					c-0.48,0.49-48.18,49.31-59.71,65.86C244.8,231.76,244.22,232.03,243.64,232.03z"/>
			</g>
			<g>
				<path class="st0" d="M178.87,534.23c-0.36,0-0.71-0.1-1.03-0.32c-29.17-19.71-28.76-48.15-28.73-49.36c0.03-1,0.85-1.8,1.84-1.8
					c0.02,0,0.03,0,0.05,0c1.02,0.03,1.82,0.87,1.8,1.89c-0.01,0.36-0.28,27.7,27.11,46.2c0.84,0.57,1.07,1.72,0.5,2.56
					C180.04,533.94,179.46,534.23,178.87,534.23z"/>
			</g>
			<g>
				<path class="st0" d="M1048.92,319.41c-0.79,0-1.52-0.51-1.77-1.31c-1.05-3.48-2.83-7.87-5.3-13.06
					c-0.44-0.92-0.05-2.02,0.87-2.46c0.92-0.44,2.02-0.05,2.46,0.87c2.55,5.35,4.4,9.92,5.5,13.58c0.29,0.98-0.26,2.01-1.23,2.3
					C1049.27,319.38,1049.09,319.41,1048.92,319.41z"/>
			</g>
			<g>
				<path class="st0" d="M1036.43,292.36c-0.65,0-1.28-0.35-1.62-0.96c-12.53-22.83-29.46-47.99-29.63-48.24
					c-0.57-0.84-0.35-1.99,0.5-2.56c0.84-0.57,1.99-0.35,2.56,0.5c0.17,0.25,17.19,25.55,29.8,48.52c0.49,0.89,0.16,2.01-0.73,2.5
					C1037.04,292.29,1036.73,292.36,1036.43,292.36z"/>
			</g>
			<g>
				<g>
					<g>
						
							<ellipse transform="matrix(0.7071 -0.7071 0.7071 0.7071 37.144 709.7948)" class="st6" cx="875.37" cy="310.06" rx="38.02" ry="38.02"/>
					</g>
				</g>
				<g>
					<g>
						<path class="st0" d="M919.65,321.04c-4.72,19-21.43,33.53-41.97,34.58c-12.17,0.62-23.85-3.54-32.9-11.71
							c-9.04-8.17-14.36-19.37-14.98-31.54c-1.28-25.12,18.12-46.6,43.25-47.88c12.17-0.62,23.85,3.54,32.9,11.71
							c9.04,8.17,14.36,19.37,14.98,31.54C921.17,312.33,920.71,316.8,919.65,321.04z M845.85,302.74c-0.7,2.83-1.01,5.81-0.85,8.87
							c0.41,8.11,3.96,15.58,9.99,21.03c6.03,5.44,13.82,8.22,21.93,7.8c16.75-0.85,29.68-15.16,28.83-31.92
							c-0.41-8.11-3.96-15.58-9.99-21.02c-6.03-5.45-13.82-8.22-21.93-7.8C860.14,280.38,849,290.08,845.85,302.74z"/>
					</g>
				</g>
				<g>
					<g>
						<path class="st0" d="M879.31,336.6c-0.88,0-1.66-0.63-1.81-1.52c-0.18-1,0.49-1.96,1.49-2.14c0.04-0.01,4.9-0.92,9.76-4.45
							c0.82-0.6,1.98-0.42,2.58,0.41c0.6,0.82,0.42,1.98-0.41,2.58c-5.58,4.06-11.05,5.06-11.29,5.1
							C879.52,336.59,879.42,336.6,879.31,336.6z"/>
					</g>
					<g>
						<path class="st0" d="M897.49,323.05c-0.29,0-0.59-0.07-0.86-0.21c-0.9-0.48-1.24-1.59-0.77-2.49
							c1.18-2.24,2.04-4.73,2.55-7.42c1.04-5.55-0.12-10.86-3.45-15.81c-0.57-0.84-0.35-1.99,0.5-2.56c0.84-0.57,1.99-0.35,2.56,0.5
							c3.9,5.77,5.25,12.02,4.02,18.55c-0.57,3.05-1.55,5.9-2.91,8.46C898.79,322.69,898.15,323.05,897.49,323.05z"/>
					</g>
					<g>
						<path class="st0" d="M889.35,290.35c-0.4,0-0.81-0.13-1.15-0.4c-2.87-2.3-5.25-3.51-5.27-3.53c-0.91-0.46-1.27-1.57-0.81-2.48
							c0.46-0.91,1.57-1.27,2.48-0.81c0.11,0.06,2.71,1.38,5.9,3.93c0.8,0.64,0.93,1.8,0.29,2.59
							C890.43,290.11,889.89,290.35,889.35,290.35z"/>
					</g>
				</g>
			</g>
			<g>
				<g>
					<path class="st0" d="M751.54,283.63c-0.82,0-1.57-0.55-1.78-1.38c-0.26-0.99,0.34-1.99,1.32-2.25
						c0.63-0.17,15.62-4.31,17.86-21.32c0.41-3.13,0.03-6.14-1.13-8.96c-0.39-0.94,0.06-2.02,1-2.41c0.94-0.39,2.02,0.06,2.41,1
						c1.41,3.42,1.87,7.07,1.38,10.85c-2.57,19.52-20.41,24.36-20.59,24.41C751.85,283.61,751.69,283.63,751.54,283.63z"/>
				</g>
				<g>
					<path class="st0" d="M761.95,241.15c-0.41,0-0.83-0.14-1.17-0.42c-1.85-1.52-3.97-2.94-6.3-4.2c-0.9-0.49-1.23-1.6-0.74-2.5
						c0.49-0.9,1.61-1.23,2.5-0.74c2.54,1.37,4.85,2.92,6.88,4.59c0.79,0.65,0.9,1.81,0.25,2.6
						C763.01,240.92,762.48,241.15,761.95,241.15z"/>
				</g>
			</g>
			<g>
				<path class="st0" d="M545.73,217.96c-0.08,0-0.17-0.01-0.25-0.02c-1.01-0.14-1.72-1.07-1.58-2.08
					c3.05-22.25-13.18-27.7-13.87-27.92c-0.97-0.31-1.51-1.34-1.2-2.31c0.31-0.97,1.34-1.51,2.31-1.21
					c0.2,0.06,19.9,6.52,16.42,31.94C547.43,217.29,546.64,217.96,545.73,217.96z"/>
			</g>
			<g>
				<path class="st0" d="M418.39,306.65c-0.08,0-0.17-0.01-0.25-0.02c-1.01-0.14-1.72-1.07-1.58-2.08
					c3.05-22.25-13.18-27.7-13.87-27.92c-0.97-0.31-1.51-1.35-1.2-2.31c0.31-0.97,1.34-1.51,2.31-1.21
					c0.2,0.06,19.9,6.52,16.42,31.94C420.09,305.98,419.3,306.65,418.39,306.65z"/>
			</g>
			<g>
				<path class="st0" d="M501.6,219.08c-0.57,0-1.14-0.26-1.5-0.76c-8.84-12.22,1.38-26.14,1.82-26.72
					c0.61-0.82,1.77-0.98,2.58-0.37c0.82,0.61,0.98,1.77,0.37,2.58c-0.38,0.51-9.02,12.34-1.78,22.35c0.6,0.83,0.41,1.98-0.41,2.58
					C502.35,218.97,501.98,219.08,501.6,219.08z"/>
			</g>
			<g>
				<g>
					<path class="st0" d="M607.42,312.1c-0.02,0-0.03,0-0.04,0c-1.02-0.01-1.84-0.84-1.83-1.86c0.01-1.01,0.83-1.83,1.84-1.83
						c0,0,0.01,0,0.01,0c0.03-0.03,4.34,0,9.21-1.62c0.97-0.32,2.01,0.2,2.33,1.17c0.32,0.97-0.2,2.01-1.17,2.33
						C612.49,312.05,607.91,312.1,607.42,312.1z"/>
				</g>
				<g>
					<path class="st0" d="M628,303.43c-0.42,0-0.84-0.14-1.19-0.44c-0.78-0.66-0.87-1.82-0.22-2.6c2.31-2.73,3.74-6.13,4.26-10.1
						c2.38-18.32-10.7-25.74-11.26-26.05c-0.89-0.49-1.22-1.61-0.73-2.5c0.49-0.89,1.6-1.22,2.5-0.74
						c0.16,0.09,15.87,8.87,13.15,29.76c-0.61,4.69-2.33,8.73-5.1,12.01C629.04,303.21,628.52,303.43,628,303.43z"/>
				</g>
			</g>
			<g>
				<g>
					<g>
						
							<ellipse transform="matrix(0.7071 -0.7071 0.7071 0.7071 -91.8315 652.2116)" class="st6" cx="741.37" cy="436.96" rx="38.02" ry="38.02"/>
					</g>
				</g>
				<g>
					<g>
						<path class="st0" d="M785.66,447.94c-4.72,19-21.43,33.53-41.97,34.58c-12.17,0.62-23.85-3.54-32.9-11.71
							c-9.04-8.17-14.36-19.37-14.98-31.54c-0.62-12.17,3.54-23.85,11.71-32.9c8.17-9.04,19.37-14.36,31.54-14.98l0,0
							c25.12-1.28,46.6,18.12,47.88,43.24C787.17,439.23,786.71,443.7,785.66,447.94z M711.85,429.58
							c-0.72,2.88-1.01,5.88-0.85,8.92c0.41,8.11,3.96,15.58,9.99,21.03c6.03,5.45,13.82,8.22,21.93,7.8
							c16.75-0.85,29.68-15.17,28.83-31.92c-0.85-16.75-15.17-29.68-31.92-28.83l0,0c-8.11,0.41-15.58,3.96-21.02,9.99
							C715.4,420.34,713.05,424.79,711.85,429.58z"/>
					</g>
				</g>
				<g>
					<path class="st0" d="M758.84,454.4c-0.42,0-0.84-0.14-1.19-0.44c-0.78-0.66-0.88-1.82-0.22-2.6c2.31-2.73,3.74-6.13,4.26-10.1
						c2.38-18.31-10.7-25.74-11.26-26.04c-0.89-0.49-1.22-1.61-0.73-2.5c0.49-0.89,1.6-1.22,2.5-0.74
						c0.16,0.09,15.87,8.87,13.15,29.76c-0.61,4.69-2.33,8.73-5.1,12.01C759.88,454.18,759.36,454.4,758.84,454.4z"/>
				</g>
			</g>
			<g>
				<path class="st0" d="M404.05,470.69c-0.42,0-0.84-0.14-1.19-0.44c-0.78-0.66-0.87-1.82-0.22-2.6c2.31-2.73,3.74-6.13,4.26-10.1
					c2.38-18.32-10.7-25.74-11.26-26.05c-0.89-0.49-1.22-1.61-0.73-2.5c0.49-0.89,1.6-1.22,2.5-0.74
					c0.16,0.09,15.87,8.87,13.15,29.76c-0.61,4.69-2.33,8.73-5.1,12.01C405.09,470.47,404.57,470.69,404.05,470.69z"/>
			</g>
			<g>
				<path class="st0" d="M212.55,544.1c-12.95,0-26.6-0.27-39.28-0.53c-18.61-0.37-36.19-0.72-47.44-0.15
					c-1.8,0.1-3.55-0.53-4.88-1.74c-1.33-1.2-2.13-2.89-2.22-4.68c-4.32-86.5,13.88-173.18,52.63-250.65
					c39.78-79.53,100.41-147.3,175.37-196.02c0.23-0.2,0.49-0.39,0.75-0.57c72.76-47,156.93-74.58,243.4-79.76
					c88.78-5.32,177.78,13.31,257.46,53.88c0.29,0.1,0.58,0.22,0.86,0.37c77.08,39.52,143.05,98.62,190.77,170.91
					c49,74.23,77.37,160.64,82.07,249.94c0.07,0.41,0.11,0.83,0.11,1.24c0,3.6-2.82,6.57-6.42,6.76l-79.58,4.05
					c-0.23,0.01-0.46,0.01-0.68,0l-28.55,0.5c-2.17,0.03-4.23-0.97-5.53-2.71c-9.89-13.21-12.89-31.34-16.69-54.29
					c-5.61-33.87-12.59-76.02-45.5-122.05c-47.18-66-81.58-94.4-104.35-113.2c-20.02-16.53-31.97-26.4-33.58-47.31
					c-24.02,11.18-49.69,3.75-79.01-4.75c-30.3-8.78-64.63-18.72-109.5-14.36c-80.28,7.81-121.64,22.9-149.01,32.88
					c-24.76,9.03-39.25,14.32-59.01,4.01c-2.49,26.4-21.84,45.55-43.93,67.42c-22.62,22.39-48.26,47.77-66.81,88.58
					c-67.35,148.17-48.86,201.96-48.67,202.48c0.8,2.03,0.56,4.28-0.62,6.11c-1.18,1.83-3.18,2.95-5.36,3.06
					C231.25,543.96,222.09,544.1,212.55,544.1z M141.16,529.6c9.62,0,20.81,0.22,32.38,0.46c18.76,0.37,39.68,0.79,57.04,0.3
					c-3.38-21.13-4.53-81.66,51.1-204.05c19.58-43.07,47.32-70.53,69.61-92.6c23.48-23.24,40.53-40.12,40.19-64.32l-1.69-4.82
					c-0.99-2.82-0.02-5.95,2.4-7.71c2.41-1.76,5.69-1.73,8.07,0.07c21.14,16.01,29.89,12.82,58.87,2.25
					c28.01-10.22,70.34-25.66,152.34-33.64c47.43-4.62,84.66,6.17,114.57,14.83c30.68,8.89,53.01,15.36,73.48,3.41l3.39-5.32
					c1.7-2.67,5.02-3.8,8-2.73c2.98,1.07,4.81,4.07,4.42,7.2c-3.27,26.11,4.02,32.13,28.15,52.05
					c23.31,19.24,58.54,48.32,106.75,115.76c34.73,48.58,42.31,94.31,47.84,127.7c3.21,19.37,5.8,35.01,12.3,45.62l25.38-0.44
					c0.07,0,0.14,0,0.21,0l72.25-3.67c-11.07-170.7-111.84-324.67-264.34-403.23c-0.29-0.1-0.57-0.22-0.84-0.36
					C688.45-2.71,501.78,6.61,355.61,100.63c-0.23,0.2-0.48,0.38-0.74,0.55c-144.14,93.3-229.12,257.01-222.91,428.5
					C134.82,529.62,137.9,529.6,141.16,529.6z"/>
			</g>
			<g>
				
					<rect x="478.88" y="54.4" transform="matrix(0.8296 -0.5584 0.5584 0.8296 -82.0808 321.5182)" class="st0" width="13.53" height="481.63"/>
			</g>
			<g>
				<g>
					<g>
						
							<ellipse transform="matrix(0.3149 -0.9491 0.9491 0.3149 -9.6549 776.2762)" class="st6" cx="532.88" cy="394.83" rx="38.02" ry="38.02"/>
					</g>
				</g>
				<g>
					<g>
						<path class="st0" d="M577.16,405.89c-1.79,7.18-5.32,13.86-10.42,19.51c-8.17,9.04-19.37,14.36-31.54,14.98
							c-12.17,0.62-23.85-3.54-32.9-11.71c-9.04-8.17-14.36-19.37-14.98-31.54c-1.28-25.13,18.12-46.6,43.25-47.88
							c12.17-0.62,23.85,3.54,32.9,11.71c9.04,8.17,14.37,19.37,14.98,31.54C578.68,397.08,578.23,401.58,577.16,405.89z
							 M503.36,387.5c-0.7,2.83-1.01,5.81-0.85,8.87c0.41,8.11,3.96,15.58,9.99,21.03c6.03,5.45,13.82,8.22,21.93,7.8
							c8.11-0.41,15.58-3.96,21.02-9.99c5.45-6.03,8.22-13.82,7.8-21.93c-0.41-8.11-3.96-15.58-9.99-21.03
							c-6.03-5.44-13.82-8.22-21.93-7.8C517.65,365.15,506.51,374.84,503.36,387.5z"/>
					</g>
				</g>
				<g>
					<g>
						<path class="st0" d="M534.59,420.47c-0.82,0-1.57-0.55-1.78-1.38c-0.26-0.99,0.34-1.99,1.32-2.25
							c0.63-0.17,15.62-4.31,17.85-21.32c0.41-3.13,0.03-6.14-1.13-8.96c-0.39-0.94,0.06-2.02,1-2.41c0.94-0.39,2.02,0.06,2.41,1
							c1.41,3.42,1.87,7.07,1.38,10.84c-2.57,19.52-20.41,24.36-20.59,24.41C534.9,420.45,534.74,420.47,534.59,420.47z"/>
					</g>
					<g>
						<path class="st0" d="M545,377.99c-0.41,0-0.83-0.14-1.17-0.42c-1.85-1.52-3.97-2.93-6.3-4.19c-0.9-0.49-1.23-1.6-0.74-2.5
							c0.48-0.9,1.6-1.23,2.5-0.74c2.54,1.37,4.85,2.92,6.88,4.59c0.79,0.65,0.9,1.81,0.25,2.6
							C546.07,377.76,545.54,377.99,545,377.99z"/>
					</g>
				</g>
			</g>
		</g>
		<g>
			<g>
				<path class="st0" d="M125.37,469.73c7.26-1.64,14.6-2.91,22-3.76c0.99-0.11,1.84-0.77,1.84-1.84c0-0.91-0.85-1.96-1.84-1.84
					c-7.72,0.89-15.39,2.18-22.98,3.89C122.08,466.69,123.06,470.25,125.37,469.73z"/>
			</g>
			<g>
				<path class="st0" d="M125.32,485.43c6.54-2.68,13.38-4.54,20.38-5.52c0.99-0.14,1.53-1.4,1.29-2.27
					c-0.29-1.06-1.28-1.43-2.27-1.29c-7,0.98-13.84,2.84-20.38,5.52c-0.92,0.38-1.58,1.23-1.29,2.27
					C123.29,485.01,124.39,485.81,125.32,485.43z"/>
			</g>
			<g>
				<path class="st0" d="M129.21,499.83c-0.97,0.23-1.54,1.34-1.29,2.27c0.27,0.99,1.3,1.51,2.27,1.29
					c4.93-1.15,9.93-1.93,14.97-2.34c0.99-0.08,1.84-0.79,1.84-1.84c0-0.94-0.85-1.93-1.84-1.84
					C139.79,497.79,134.46,498.61,129.21,499.83z"/>
			</g>
			<g>
				<path class="st0" d="M127.23,515.91c3.35-1.51,7.08-1.86,10.72-1.94c4-0.09,8,0.03,12,0.06c2.37,0.02,2.38-3.67,0-3.69
					c-8.12-0.07-16.97-1.04-24.58,2.38c-0.91,0.41-1.13,1.73-0.66,2.52C125.26,516.18,126.32,516.32,127.23,515.91z"/>
			</g>
			<g>
				<path class="st0" d="M160.31,520.87c-11.07,0.8-22.15,1.6-33.22,2.4c-2.35,0.17-2.37,3.86,0,3.69c11.07-0.8,22.15-1.6,33.22-2.4
					C162.67,524.39,162.68,520.7,160.31,520.87z"/>
			</g>
			<g>
				<path class="st0" d="M128.44,446.92c-2.27,0.69-1.3,4.25,0.98,3.56c6.57-2,13.32-3.23,20.18-3.63c2.36-0.14,2.38-3.83,0-3.69
					C142.42,443.58,135.31,444.82,128.44,446.92z"/>
			</g>
			<g>
				<path class="st0" d="M129.44,429.17c5.91-1.16,11.92-1.65,17.94-1.51c2.38,0.05,2.37-3.64,0-3.69
					c-6.35-0.14-12.69,0.43-18.93,1.64c-0.98,0.19-1.54,1.36-1.29,2.27C127.45,428.9,128.46,429.36,129.44,429.17z"/>
			</g>
			<g>
				<path class="st0" d="M140.49,404.74c5.31-1.85,10.87-2.57,16.48-2.12c0.99,0.08,1.84-0.9,1.84-1.84c0-1.06-0.85-1.77-1.84-1.84
					c-5.89-0.47-11.88,0.3-17.46,2.25c-0.94,0.33-1.57,1.26-1.29,2.27C138.47,404.37,139.55,405.07,140.49,404.74z"/>
			</g>
			<g>
				<path class="st0" d="M160.66,380.42c-5.49,0.45-10.88,1.71-15.96,3.84c-0.92,0.39-1.58,1.22-1.29,2.27
					c0.24,0.87,1.34,1.68,2.27,1.29c4.77-2,9.82-3.29,14.98-3.71c0.99-0.08,1.84-0.79,1.84-1.84
					C162.51,381.33,161.66,380.34,160.66,380.42z"/>
			</g>
			<g>
				<path class="st0" d="M165.82,360.64c-6.62-0.82-13.4-0.12-19.73,1.99c-2.24,0.75-1.28,4.31,0.98,3.56
					c6.06-2.02,12.41-2.64,18.75-1.86c0.99,0.12,1.84-0.94,1.84-1.84C167.66,361.38,166.81,360.76,165.82,360.64z"/>
			</g>
			<g>
				<path class="st0" d="M171.24,345.08c-5.91,1.19-11.82,2.38-17.74,3.56c-0.98,0.2-1.54,1.36-1.29,2.27
					c0.28,1.02,1.29,1.49,2.27,1.29c5.91-1.19,11.82-2.38,17.74-3.56c0.98-0.2,1.54-1.36,1.29-2.27
					C173.23,345.35,172.22,344.88,171.24,345.08z"/>
			</g>
			<g>
				<path class="st0" d="M178.36,330.05c-9.02,0.8-17.86,2.89-26.25,6.32c-0.93,0.38-1.56,1.22-1.29,2.27
					c0.23,0.88,1.35,1.66,2.27,1.29c8.07-3.29,16.59-5.41,25.27-6.19C180.7,333.53,180.73,329.84,178.36,330.05z"/>
			</g>
			<g>
				<path class="st0" d="M182.83,314.36c-5.87-0.34-11.8,0.42-17.4,2.23c-2.25,0.73-1.29,4.29,0.98,3.56
					c5.32-1.72,10.84-2.42,16.42-2.1c1,0.06,1.84-0.89,1.84-1.84C184.68,315.16,183.83,314.42,182.83,314.36z"/>
			</g>
			<g>
				<path class="st0" d="M191.45,297.65c-5.56-0.89-11.26-0.35-16.48,1.78c-0.92,0.38-1.57,1.23-1.29,2.27
					c0.24,0.87,1.34,1.67,2.27,1.29c4.58-1.87,9.62-2.56,14.52-1.78c0.98,0.16,1.99-0.25,2.27-1.29
					C192.98,299.04,192.44,297.81,191.45,297.65z"/>
			</g>
			<g>
				<path class="st0" d="M198.3,283.02c-6.63-0.1-13.26,0.67-19.69,2.25c-2.3,0.57-1.33,4.13,0.98,3.56
					c6.13-1.51,12.4-2.21,18.71-2.12C200.68,286.74,200.68,283.05,198.3,283.02z"/>
			</g>
			<g>
				<path class="st0" d="M207.16,265.31c-6.59-0.25-13.19,0.35-19.64,1.73c-2.32,0.5-1.34,4.05,0.98,3.56
					c6.14-1.31,12.39-1.83,18.66-1.6C209.53,269.09,209.53,265.4,207.16,265.31z"/>
			</g>
			<g>
				<path class="st0" d="M215.27,249.79c-6.1,0.03-12.18,0.59-18.19,1.63c-0.98,0.17-1.53,1.38-1.29,2.27
					c0.29,1.04,1.28,1.46,2.27,1.29c5.69-0.98,11.44-1.47,17.21-1.5C217.65,253.47,217.65,249.78,215.27,249.79z"/>
			</g>
			<g>
				<path class="st0" d="M228.12,231.7c-6.4,1.37-12.96,1.71-19.48,1.07c-0.99-0.1-1.84,0.92-1.84,1.84c0,1.08,0.85,1.75,1.84,1.84
					c6.84,0.67,13.74,0.24,20.46-1.2C231.42,234.76,230.44,231.21,228.12,231.7z"/>
			</g>
			<g>
				<path class="st0" d="M246.54,209.4c-5.89,1.44-11.94,1.84-17.97,1.23c-0.99-0.1-1.84,0.92-1.84,1.84c0,1.08,0.85,1.75,1.84,1.84
					c6.34,0.64,12.76,0.15,18.95-1.37C249.82,212.4,248.85,208.84,246.54,209.4z"/>
			</g>
			<g>
				<path class="st0" d="M261.03,193.02c-5.41,0-10.82,0-16.24,0c-2.37,0-2.38,3.69,0,3.69c5.41,0,10.82,0,16.24,0
					C263.4,196.71,263.41,193.02,261.03,193.02z"/>
			</g>
			<g>
				<path class="st0" d="M276.53,178.26c-7.13,0-14.27,0-21.4,0c-2.37,0-2.38,3.69,0,3.69c7.13,0,14.27,0,21.4,0
					C278.9,181.95,278.9,178.26,276.53,178.26z"/>
			</g>
			<g>
				<path class="st0" d="M289.81,162.79c-6.9-0.31-13.8-0.08-20.66,0.69c-0.99,0.11-1.84,0.77-1.84,1.84c0,0.91,0.85,1.96,1.84,1.84
					c6.86-0.77,13.77-1,20.66-0.69C292.18,166.59,292.18,162.9,289.81,162.79z"/>
			</g>
			<g>
				<path class="st0" d="M307.58,146.35c-8.35,0.92-16.75,1.3-25.14,1.16c-2.38-0.04-2.38,3.65,0,3.69
					c8.4,0.15,16.79-0.24,25.14-1.16c1-0.11,1.83-0.77,1.84-1.84C309.44,147.28,308.57,146.24,307.58,146.35z"/>
			</g>
			<g>
				<path class="st0" d="M322.28,136.19c-7.87,0-15.74,0-23.61,0c-2.37,0-2.38,3.69,0,3.69c7.87,0,15.74,0,23.61,0
					C324.65,139.88,324.66,136.19,322.28,136.19z"/>
			</g>
			<g>
				<path class="st0" d="M335.11,128.86c-7.23-3.38-14.83-5.88-22.67-7.37c-2.32-0.44-3.31,3.11-0.98,3.56
					c7.52,1.43,14.86,3.75,21.79,7c0.9,0.42,1.99,0.25,2.52-0.66C336.24,130.59,336.02,129.29,335.11,128.86z"/>
			</g>
			<g>
				<path class="st0" d="M347.74,124.4c-5.25-3.81-10.51-7.63-15.76-11.44c-0.81-0.59-2.06-0.14-2.52,0.66
					c-0.55,0.93-0.15,1.94,0.66,2.52c5.25,3.81,10.51,7.63,15.76,11.44c0.81,0.59,2.06,0.14,2.52-0.66
					C348.94,125.99,348.55,124.99,347.74,124.4z"/>
			</g>
			<g>
				<path class="st0" d="M384.48,86.74c-0.86-1.81-1.46-3.8-1.51-5.82c-0.05-2.15,0.42-4.27-0.8-6.21c-1.27-2-4.46-0.15-3.19,1.86
					c0.48,0.76,0.4,1.6,0.36,2.47c-0.06,1.09-0.09,2.15,0.04,3.23c0.26,2.22,0.95,4.3,1.91,6.32c1.96,4.13,4.95,7.73,7.66,11.37
					c0.59,0.8,1.6,1.2,2.52,0.66c0.79-0.46,1.26-1.72,0.66-2.52C389.43,94.46,386.44,90.86,384.48,86.74z"/>
			</g>
			<g>
				<path class="st0" d="M403.57,70.13c0.06-2.38-3.63-2.37-3.69,0c-0.16,6.3,2.6,12.09,5.32,17.61c0.44,0.89,1.71,1.14,2.52,0.66
					c0.91-0.53,1.1-1.63,0.66-2.52C405.95,80.94,403.43,75.76,403.57,70.13z"/>
			</g>
			<g>
				<path class="st0" d="M426.5,59.8c-0.11-0.99-0.77-1.84-1.84-1.84c-0.91,0-1.96,0.85-1.84,1.84c0.63,5.57,2.3,10.93,5.01,15.84
					c1.15,2.08,4.34,0.22,3.19-1.86C428.63,69.47,427.06,64.69,426.5,59.8z"/>
			</g>
			<g>
				<path class="st0" d="M449.18,46.42c-1.2-2.05-4.39-0.19-3.19,1.86c3.14,5.37,6.28,10.75,9.42,16.12
					c1.2,2.05,4.39,0.19,3.19-1.86C455.46,57.17,452.32,51.79,449.18,46.42z"/>
			</g>
			<g>
				<path class="st0" d="M478.66,38.66c-0.61-2.29-4.17-1.32-3.56,0.98c1.55,5.85,3.56,11.55,5.97,17.1
					c0.4,0.91,1.74,1.12,2.52,0.66c0.94-0.55,1.06-1.61,0.66-2.52C481.98,49.63,480.13,44.19,478.66,38.66z"/>
			</g>
			<g>
				<path class="st0" d="M501.58,32.5c-0.32-0.94-1.27-1.56-2.27-1.29c-0.92,0.25-1.61,1.32-1.29,2.27
					c1.79,5.23,3.1,10.61,3.94,16.08c0.15,0.99,1.39,1.53,2.27,1.29c1.05-0.29,1.44-1.28,1.29-2.27
					C504.68,43.11,503.36,37.74,501.58,32.5z"/>
			</g>
			<g>
				<path class="st0" d="M528.54,25.13c0,6.27,0,12.55,0,18.82c0,2.37,3.69,2.38,3.69,0c0-6.27,0-12.55,0-18.82
					C532.23,22.76,528.54,22.75,528.54,25.13z"/>
			</g>
			<g>
				<path class="st0" d="M556.04,20.97c-0.16-0.98-1.38-1.53-2.27-1.29c-1.05,0.29-1.45,1.28-1.29,2.27
					c1.02,6.31,2.3,12.58,3.85,18.79c0.58,2.3,4.13,1.33,3.56-0.98C558.35,33.55,557.06,27.28,556.04,20.97z"/>
			</g>
			<g>
				<path class="st0" d="M576.24,19.82c1.84,5.92,2.49,12.07,1.94,18.24c-0.09,0.99,0.91,1.84,1.84,1.84c1.07,0,1.76-0.85,1.84-1.84
					c0.57-6.47-0.15-13.03-2.07-19.22C579.1,16.58,575.53,17.55,576.24,19.82z"/>
			</g>
			<g>
				<path class="st0" d="M608.55,15.64c-0.9-0.25-2.08,0.31-2.27,1.29c-1.15,5.87-1.89,11.82-2.2,17.79c-0.13,2.37,3.56,2.37,3.69,0
					c0.3-5.65,0.99-11.26,2.07-16.81C610.03,16.93,609.56,15.92,608.55,15.64z"/>
			</g>
			<g>
				<path class="st0" d="M632.46,15.83c-1.49,5.98-2.61,12.03-3.41,18.13c-0.13,0.99,0.94,1.84,1.84,1.84
					c1.11,0,1.71-0.85,1.84-1.84c0.76-5.77,1.88-11.5,3.28-17.15C636.59,14.5,633.03,13.52,632.46,15.83z"/>
			</g>
			<g>
				<path class="st0" d="M663.19,20.3c-0.83-0.49-2.06-0.22-2.52,0.66c-2.15,4.07-3.83,8.39-4.95,12.86c-0.24,0.97,0.31,2,1.29,2.27
					c0.95,0.26,2.03-0.32,2.27-1.29c1.05-4.2,2.56-8.17,4.58-11.98C664.32,21.94,664.08,20.82,663.19,20.3z"/>
			</g>
			<g>
				<path class="st0" d="M682.04,19.61c-1.07-0.29-1.88,0.37-2.27,1.29c-2.25,5.35-4.23,10.81-5.94,16.35
					c-0.7,2.27,2.86,3.25,3.56,0.98c1.71-5.55,3.69-11,5.94-16.35C683.71,20.96,682.91,19.85,682.04,19.61z"/>
			</g>
			<g>
				<path class="st0" d="M708.16,25.09c-0.91-0.53-1.96-0.16-2.52,0.66c-2.83,4.15-4.98,8.77-6.35,13.61
					c-0.65,2.29,2.91,3.26,3.56,0.98c1.3-4.56,3.3-8.81,5.98-12.73C709.39,26.79,708.98,25.56,708.16,25.09z"/>
			</g>
			<g>
				<path class="st0" d="M729.64,30.8c-0.9-0.53-1.97-0.17-2.52,0.66c-2.82,4.27-5.64,8.54-8.46,12.81
					c-0.55,0.83-0.16,2.04,0.66,2.52c0.9,0.53,1.97,0.17,2.52-0.66c2.82-4.27,5.64-8.54,8.46-12.81
					C730.85,32.49,730.47,31.28,729.64,30.8z"/>
			</g>
			<g>
				<path class="st0" d="M749.93,33.65c-3.9,4.96-6.73,10.64-8.2,16.78c-0.55,2.31,3,3.29,3.56,0.98
					c1.31-5.49,3.75-10.71,7.25-15.15c0.62-0.78,0.76-1.85,0-2.61C751.89,33.01,750.54,32.86,749.93,33.65z"/>
			</g>
			<g>
				<path class="st0" d="M767.83,39.71c-3.8,4.61-6.64,9.9-8.31,15.64c-0.66,2.29,2.9,3.26,3.56,0.98
					c1.48-5.11,3.97-9.91,7.36-14.02c0.63-0.77,0.75-1.86,0-2.61C769.78,39.06,768.47,38.94,767.83,39.71z"/>
			</g>
			<g>
				<path class="st0" d="M785.82,46.28c-2.03,2.18-3.82,4.6-5.27,7.21c-0.72,1.31-1.34,2.66-1.91,4.04
					c-0.28,0.69-0.53,1.39-0.78,2.09c-0.19,0.54-0.36,1.02-0.75,1.39c-1.73,1.64,0.89,4.24,2.61,2.61c1.15-1.09,1.53-2.62,2.06-4.06
					c0.48-1.29,1.06-2.55,1.71-3.76c1.34-2.51,2.99-4.82,4.93-6.91C790.05,47.15,787.44,44.54,785.82,46.28z"/>
			</g>
			<g>
				<path class="st0" d="M805.76,53.75c-0.86-0.5-2.03-0.21-2.52,0.66c-2.46,4.31-4.91,8.61-7.37,12.92
					c-0.49,0.87-0.2,2.02,0.66,2.52c0.86,0.5,2.03,0.21,2.52-0.66c2.46-4.31,4.91-8.61,7.37-12.92
					C806.91,55.41,806.62,54.26,805.76,53.75z"/>
			</g>
			<g>
				<path class="st0" d="M818.47,59.27c-3.56,5.64-6.66,11.55-9.3,17.67c-0.39,0.91-0.27,1.98,0.66,2.52
					c0.78,0.45,2.13,0.26,2.52-0.66c2.63-6.13,5.74-12.03,9.3-17.67C822.92,59.12,819.73,57.26,818.47,59.27z"/>
			</g>
			<g>
				<path class="st0" d="M829.12,65c-3.56,5.64-10.06,19.75-12.69,25.87c-0.39,0.91-0.27,1.98,0.66,2.52
					c0.78,0.45,2.13,0.26,2.52-0.66c2.63-6.13,9.14-20.23,12.69-25.87C833.58,64.85,830.39,63,829.12,65z"/>
			</g>
			<g>
				<path class="st0" d="M863.82,76.56c1.78-1.55-0.48-4.47-2.28-2.9c-9.69,8.44-14.45,20.6-18.83,32.34
					c-0.83,2.23,2.58,3.64,3.41,1.41C850.26,96.32,854.66,84.55,863.82,76.56z"/>
			</g>
			<g>
				<path class="st0" d="M874.68,84.88c-7.62,3.92-13.48,10.75-16.36,18.8c-0.34,0.94,0.38,2.02,1.29,2.27
					c1.02,0.28,1.93-0.35,2.27-1.29c2.57-7.16,7.92-13.12,14.67-16.59C878.65,86.98,876.79,83.79,874.68,84.88z"/>
			</g>
			<g>
				<path class="st0" d="M899.32,98.8c2.32,0.44,3.31-3.11,0.98-3.56c-9.8-1.87-18.94,2.36-27.25,7.12
					c-2.06,1.18-0.2,4.37,1.86,3.19C882.25,101.34,890.59,97.14,899.32,98.8z"/>
			</g>
			<g>
				<path class="st0" d="M909.7,111.73c0.99,0.1,1.84-0.92,1.84-1.84c0-1.08-0.85-1.75-1.84-1.84c-7.74-0.75-15.59,0.06-23.03,2.33
					c-2.26,0.69-1.3,4.26,0.98,3.56C894.81,111.75,902.26,111.01,909.7,111.73z"/>
			</g>
			<g>
				<path class="st0" d="M921.85,121.6c0.99,0.12,1.84-0.94,1.84-1.84c0-1.1-0.85-1.72-1.84-1.84c-4.24-0.53-8.52-0.4-12.73,0.37
					c-4.15,0.75-7.97,2.49-12.05,3.49c-2.3,0.57-1.33,4.13,0.98,3.56c3.92-0.97,7.62-2.64,11.6-3.41
					C913.67,121.14,917.79,121.09,921.85,121.6z"/>
			</g>
			<g>
				<path class="st0" d="M934.77,125.52c-6.53,2.18-13.24,3.76-20.05,4.71c-0.99,0.14-1.53,1.4-1.29,2.27
					c0.29,1.06,1.28,1.43,2.27,1.29c6.82-0.95,13.53-2.53,20.05-4.71C938,128.33,937.03,124.76,934.77,125.52z"/>
			</g>
			<g>
				<path class="st0" d="M947.71,142.18c2.38,0.08,2.37-3.61,0-3.69c-7.82-0.26-15.56,1.42-22.61,4.8
					c-2.14,1.03-0.27,4.21,1.86,3.19C933.42,143.38,940.56,141.94,947.71,142.18z"/>
			</g>
			<g>
				<path class="st0" d="M960.97,152.32c0-0.93-0.85-1.93-1.84-1.84c-6.68,0.58-13.28,1.83-19.69,3.79
					c-2.27,0.69-1.3,4.25,0.98,3.56c6.1-1.86,12.36-3.1,18.71-3.65C960.12,154.08,960.97,153.38,960.97,152.32z"/>
			</g>
			<g>
				<path class="st0" d="M973.16,163.88c-7.02,0.17-14.01,1.16-20.8,2.94c-2.29,0.6-1.32,4.16,0.98,3.56
					c6.49-1.7,13.11-2.65,19.82-2.81C975.53,167.52,975.54,163.83,973.16,163.88z"/>
			</g>
			<g>
				<path class="st0" d="M986.46,181.09c0.99,0.11,1.84-0.92,1.84-1.84c0-1.09-0.85-1.74-1.84-1.84c-6.99-0.75-14.1-0.09-20.83,1.92
					c-2.27,0.67-1.3,4.24,0.98,3.56C973.06,180.96,979.76,180.37,986.46,181.09z"/>
			</g>
			<g>
				<path class="st0" d="M1000.45,197.18c2.36,0.21,2.35-3.48,0-3.69c-7.45-0.67-14.95-0.18-22.26,1.39
					c-2.32,0.5-1.34,4.06,0.98,3.56C986.17,196.94,993.33,196.54,1000.45,197.18z"/>
			</g>
			<g>
				<path class="st0" d="M1015.96,214.46c2.37,0.07,2.37-3.62,0-3.69c-7.26-0.23-14.52-0.13-21.77,0.29c-2.36,0.14-2.38,3.83,0,3.69
					C1001.44,214.33,1008.7,214.24,1015.96,214.46z"/>
			</g>
			<g>
				<path class="st0" d="M1029.98,232.2c2.37,0.17,2.36-3.52,0-3.69c-7.32-0.52-14.65-0.12-21.88,1.11
					c-0.98,0.17-1.53,1.38-1.29,2.27c0.29,1.04,1.28,1.46,2.27,1.29C1015.97,232.01,1023,231.71,1029.98,232.2z"/>
			</g>
			<g>
				<path class="st0" d="M1039.5,250.18c0.99,0.14,1.98-0.24,2.27-1.29c0.24-0.87-0.3-2.13-1.29-2.27
					c-5.63-0.81-11.28-0.66-16.86,0.5c-0.98,0.2-1.54,1.35-1.29,2.27c0.28,1.01,1.29,1.49,2.27,1.29
					C1029.48,249.67,1034.57,249.48,1039.5,250.18z"/>
			</g>
			<g>
				<path class="st0" d="M1050.64,269.1c0.99,0.09,1.84-0.92,1.84-1.84c0-1.08-0.85-1.75-1.84-1.84c-6.6-0.62-13.3,0-19.68,1.78
					c-2.28,0.64-1.31,4.2,0.98,3.56C1038.03,269.05,1044.34,268.51,1050.64,269.1z"/>
			</g>
			<g>
				<path class="st0" d="M1057.52,286.78c0.73,0.13,1.46,0.27,2.18,0.43c0.36,0.08,0.72,0.17,1.08,0.24
					c0.08,0.07,0.17,0.09,0.24,0.1c0.09,0.47,0.36,0.89,0.84,1.17c0.79,0.46,2.11,0.25,2.52-0.66c0.92-2.01-0.5-3.62-2.44-4.12
					c-2.05-0.52-4.15-0.86-6.25-1.14c-4.12-0.55-8.28-0.7-12.43-0.43c-2.36,0.15-2.37,3.84,0,3.69c3.2-0.21,6.41-0.18,9.61,0.11
					C1054.44,286.3,1055.98,286.51,1057.52,286.78z"/>
			</g>
			<g>
				<path class="st0" d="M1069.83,300.76c-6.03,0-12.05,0-18.08,0c-2.37,0-2.38,3.69,0,3.69c6.03,0,12.05,0,18.08,0
					C1072.21,304.45,1072.21,300.76,1069.83,300.76z"/>
			</g>
			<g>
				<path class="st0" d="M1078.32,321.83c2.38,0.07,2.37-3.62,0-3.69c-5.78-0.18-11.57-0.12-17.35,0.16c-2.36,0.12-2.38,3.81,0,3.69
					C1066.75,321.7,1072.53,321.65,1078.32,321.83z"/>
			</g>
			<g>
				<path class="st0" d="M1084.22,334.7c-6.76,0-13.53,0-20.29,0c-2.37,0-2.38,3.69,0,3.69c6.76,0,13.53,0,20.29,0
					C1086.6,338.39,1086.6,334.7,1084.22,334.7z"/>
			</g>
			<g>
				<path class="st0" d="M1092.35,356.24c2.38,0.06,2.37-3.63,0-3.69c-7.38-0.2-14.76-0.23-22.14-0.1c-2.37,0.04-2.38,3.73,0,3.69
					C1077.58,356,1084.97,356.04,1092.35,356.24z"/>
			</g>
			<g>
				<path class="st0" d="M1097.86,370.04c-7.5-0.27-14.99-0.54-22.49-0.81c-2.37-0.09-2.37,3.6,0,3.69
					c7.5,0.27,14.99,0.54,22.49,0.81C1100.24,373.82,1100.24,370.13,1097.86,370.04z"/>
			</g>
			<g>
				<path class="st0" d="M1102.3,393.1c2.37,0.13,2.36-3.56,0-3.69c-6.39-0.36-12.78-0.52-19.18-0.49c-2.37,0.01-2.38,3.7,0,3.69
					C1089.51,392.58,1095.91,392.74,1102.3,393.1z"/>
			</g>
			<g>
				<path class="st0" d="M1087.16,403.91c-0.99,0.09-1.84,0.79-1.84,1.84c0,0.93,0.85,1.93,1.84,1.84
					c6.56-0.57,13.1,0.15,19.38,2.16c2.27,0.73,3.24-2.84,0.98-3.56C1100.97,404.11,1094.01,403.32,1087.16,403.91z"/>
			</g>
			<g>
				<path class="st0" d="M1105.92,419.51c-1.9-0.01-3.81,0.08-5.7,0.14c-3.86,0.11-7.72,0.26-11.58,0.45c-2.36,0.11-2.38,3.8,0,3.69
					c3-0.14,6.01-0.27,9.01-0.37c1.47-0.05,2.94-0.09,4.41-0.13c0.74-0.02,1.47-0.04,2.21-0.05c0.37-0.01,0.74-0.02,1.1-0.02
					c0.09,0,0.18,0,0.27-0.01c0.15,0.21,0.33,0.39,0.54,0.51c0.93,0.54,1.94,0.15,2.52-0.66c0.6-0.83,0.39-1.96-0.29-2.68
					C1107.74,419.68,1106.83,419.52,1105.92,419.51z"/>
			</g>
			<g>
				<path class="st0" d="M1089.76,435.77c-2.37,0.04-2.38,3.73,0,3.69c7.36-0.13,14.72,0.4,21.98,1.65
					c0.98,0.17,1.99-0.26,2.27-1.29c0.24-0.89-0.3-2.1-1.29-2.27C1105.13,436.24,1097.45,435.63,1089.76,435.77z"/>
			</g>
			<g>
				<path class="st0" d="M1111.16,455.73c2.37,0,2.38-3.69,0-3.69c-4.92,0-9.84,0-14.76,0c-2.37,0-2.38,3.69,0,3.69
					C1101.32,455.73,1106.24,455.73,1111.16,455.73z"/>
			</g>
			<g>
				<path class="st0" d="M1087.63,471.73c8.1-1.66,16.38-2.14,24.63-1.49c2.37,0.19,2.36-3.5,0-3.69
					c-8.57-0.67-17.19-0.1-25.61,1.62C1084.32,468.65,1085.31,472.21,1087.63,471.73z"/>
			</g>
			<g>
				<path class="st0" d="M1116.76,479.77c-10.9-1.74-21.87-2.96-32.89-3.64c-2.37-0.15-2.36,3.54,0,3.69
					c10.69,0.66,21.33,1.83,31.91,3.51C1118.1,483.7,1119.1,480.14,1116.76,479.77z"/>
			</g>
		</g>
		<g>
			<g>
				<g>
					
						<ellipse transform="matrix(0.7071 -0.7071 0.7071 0.7071 -98.1003 766.1876)" class="st6" cx="875.82" cy="501.51" rx="38.02" ry="38.02"/>
				</g>
			</g>
			<g>
				<g>
					<path class="st0" d="M920.1,512.49c-4.72,19-21.43,33.53-41.97,34.58c-12.17,0.62-23.85-3.54-32.9-11.71
						c-9.04-8.17-14.36-19.37-14.98-31.54c-1.28-25.12,18.12-46.6,43.25-47.88c12.17-0.62,23.85,3.54,32.9,11.71
						c9.04,8.17,14.36,19.37,14.98,31.54C921.62,503.78,921.16,508.25,920.1,512.49z M846.3,494.19c-0.7,2.83-1.01,5.81-0.85,8.87
						c0.41,8.11,3.96,15.58,9.99,21.03c6.03,5.44,13.82,8.22,21.93,7.8c16.75-0.85,29.68-15.16,28.83-31.92
						c-0.41-8.11-3.96-15.58-9.99-21.03c-6.03-5.45-13.82-8.22-21.93-7.8C860.59,471.83,849.45,481.53,846.3,494.19z"/>
				</g>
			</g>
			<g>
				<g>
					<path class="st0" d="M897.94,514.5c-0.29,0-0.59-0.07-0.86-0.21c-0.9-0.48-1.24-1.59-0.77-2.49c1.18-2.24,2.04-4.74,2.55-7.42
						c1.04-5.55-0.12-10.86-3.46-15.81c-0.57-0.84-0.35-1.99,0.5-2.56c0.84-0.57,1.99-0.35,2.56,0.5c3.9,5.78,5.25,12.02,4.02,18.55
						c-0.58,3.05-1.55,5.9-2.91,8.46C899.24,514.14,898.6,514.5,897.94,514.5z"/>
				</g>
				<g>
					<path class="st0" d="M889.8,481.8c-0.4,0-0.81-0.13-1.15-0.4c-2.87-2.3-5.25-3.52-5.27-3.53c-0.91-0.46-1.27-1.57-0.81-2.48
						c0.46-0.91,1.57-1.27,2.48-0.81c0.11,0.06,2.71,1.39,5.9,3.93c0.8,0.64,0.93,1.8,0.29,2.59
						C890.88,481.56,890.34,481.8,889.8,481.8z"/>
				</g>
			</g>
		</g>
		<g>
			<path class="st3" d="M703.33,491.94c11.17,22.76,13.84,27.05,34.43,24.51c20.59-2.54,5.16,43.23,30.15,48.11
				c17.79,3.47,23.25-11.3,19.7-31.42c-4.64-26.25,13.54-22.67,10.83-37.55L703.33,491.94z"/>
		</g>
		<g>
			<path class="st0" d="M798.43,495.59c0.63,0.99,1.16,2.07,1.46,3.27c0.34,1.19,0.45,2.51,0.29,3.84
				c-0.15,1.33-0.55,2.65-1.09,3.84c-0.53,1.2-1.17,2.26-1.79,3.24c-1.25,1.96-2.39,3.57-3.2,5.14c-0.4,0.79-0.78,1.53-1.03,2.31
				c-0.31,0.76-0.52,1.55-0.72,2.35c-0.77,3.23-0.58,7.02,0.09,10.87l0.59,3.11c0.21,1.15,0.41,2.3,0.56,3.46
				c0.32,2.33,0.53,4.69,0.58,7.11c0.07,4.81-0.33,9.86-2.39,15.04c-1.03,2.57-2.64,5.19-4.92,7.43c-2.31,2.23-5.38,3.92-8.51,4.61
				c-3.13,0.76-6.16,0.64-8.89,0.19c-1.39-0.23-2.66-0.54-3.97-0.93c-1.31-0.38-2.62-0.9-3.91-1.49c-2.57-1.21-5.02-2.9-7.08-4.94
				c-2.04-2.06-3.68-4.41-4.94-6.8c-2.5-4.81-3.69-9.66-4.48-14.22c-0.79-4.56-1.22-8.95-1.89-12.86c-0.31-1.94-0.7-3.78-1.2-5.16
				c-0.25-0.69-0.52-1.26-0.75-1.63c-0.24-0.37-0.41-0.53-0.53-0.63c-0.12-0.11-0.27-0.19-0.64-0.27c-0.36-0.07-0.92-0.11-1.59-0.06
				c-2.44,0.25-4.97,0.33-7.55,0.14c-5.14-0.33-10.57-2.04-14.95-5.03c-4.42-2.95-7.7-6.85-10.17-10.85
				c-2.47-4.02-4.27-8.21-5.66-12.47c-1.38-4.27-2.42-8.61-2.91-13.18c3.26,3.25,6,6.71,8.7,10.08c2.68,3.38,5.27,6.7,7.89,9.69
				c2.64,2.97,5.33,5.57,8.21,7.34c2.89,1.76,6.05,2.62,9.55,2.72c1.75,0.05,3.56-0.07,5.42-0.34c1.48-0.2,3.11-0.28,4.89-0.03
				c1.77,0.24,3.72,0.87,5.41,1.96c1.7,1.07,3.07,2.5,4.07,3.9c0.99,1.41,1.67,2.81,2.21,4.14c1.06,2.66,1.61,5.08,2.08,7.4
				c0.87,4.62,1.34,8.86,2.12,12.83c0.77,3.94,1.71,7.61,3.24,10.5c1.53,2.9,3.46,4.89,6.11,6.25c0.68,0.32,1.37,0.64,2.14,0.87
				c0.75,0.24,1.59,0.47,2.34,0.61c1.53,0.3,2.92,0.34,4.02,0.12c1.13-0.19,2-0.63,2.87-1.34c0.84-0.77,1.67-1.84,2.31-3.26
				c1.33-2.82,2.03-6.55,2.16-10.38c0.07-1.92,0.02-3.89-0.13-5.87c-0.07-0.99-0.18-1.98-0.3-2.98l-0.43-3.31
				c-0.51-4.7-0.61-9.77,0.94-14.94c0.82-2.55,2.13-5.03,3.79-7.03c1.65-2.02,3.51-3.56,5.14-4.83c1.65-1.3,3.02-2.33,4.09-3.77
				C797.23,499.9,797.89,497.89,798.43,495.59z"/>
		</g>
		<g>
			<path class="st10" d="M776.3,537.29c0,0,2,10.28-3.04,12.69c-5.04,2.41-5.75-5.03-5.75-5.03S773.94,548.7,776.3,537.29z"/>
		</g>
		<g>
			<path class="st3" d="M262.73,520.99c24.68,6.58,21.23,25.65,32.6,49.23c11.37,23.58,45.68,23.57,48.49-12.77
				c2.81-36.34,40.24-46.64,40.24-46.64L262.73,520.99z"/>
		</g>
		<g>
			<path class="st0" d="M384.07,510.8c-7.11,4.98-13.45,9.97-18.89,15.51c-2.73,2.74-5.14,5.66-7.29,8.7
				c-2.14,3.04-3.94,6.27-5.21,9.71c-1.28,3.43-2.1,7.02-2.53,10.68l-0.58,6.29l-0.55,3.49c-0.27,1.16-0.5,2.33-0.82,3.5
				c-1.3,4.64-3.39,9.28-6.6,13.41c-1.65,2.03-3.55,3.91-5.73,5.49c-2.19,1.56-4.61,2.84-7.17,3.75c-2.57,0.86-5.25,1.38-7.93,1.49
				c-2.68,0.13-5.33-0.21-7.89-0.79c-5.11-1.19-9.78-3.7-13.57-7.04c-3.83-3.31-6.83-7.43-8.9-11.86c-1.83-4.14-3.4-8.21-4.68-12.36
				c-2.65-8.23-4.36-16.45-7.45-23.14c-1.52-3.35-3.33-6.36-5.96-9.06c-2.63-2.7-5.97-5.02-9.6-7.58c4.37-0.22,8.92,0.5,13.14,2.62
				c4.24,2.1,7.82,5.77,10.24,9.75c2.46,4.01,3.98,8.21,5.45,12.21c1.44,4.03,2.74,7.91,4.21,11.67c1.41,3.76,3.1,7.39,4.86,10.8
				c1.67,3.02,3.79,5.72,6.4,7.74c1.29,1.02,2.67,1.9,4.12,2.57c1.44,0.7,2.94,1.24,4.47,1.53c3.05,0.66,6.11,0.4,8.88-0.53
				c1.37-0.51,2.67-1.21,3.88-2.07c1.2-0.88,2.26-1.98,3.29-3.15c1.96-2.46,3.46-5.51,4.46-8.89l0.68-2.58l0.52-2.68l0.77-6.16
				c0.66-4.61,1.94-9.18,3.81-13.49c3.72-8.62,9.77-16.19,17.28-21.25c3.72-2.58,7.76-4.56,11.93-6
				C375.31,511.67,379.66,510.74,384.07,510.8z"/>
		</g>
		<g>
			<path class="st10" d="M332.64,545.55c0,0-4.84,26.89-15.5,27.7c-10.66,0.8-13.07-12.11-13.07-12.11S319.4,575.46,332.64,545.55z"
				/>
		</g>
	</g>
	<polygon class="st11" points="48.99,875.75 58.99,1113.23 1213.17,1113.23 1223.17,853.23 	"/>
	<g>
		<g>
			<path class="st2" d="M145.05,1075.21l-38.28,0.72l-9.04-130.56c8.05-4.02,16.56-7.08,25.55-9.18c8.98-2.1,17.92-3.24,26.82-3.41
				c7.35-0.14,14.65,1.01,21.92,3.46c7.27,2.44,13.81,5.93,19.63,10.46c5.82,4.53,10.53,9.99,14.14,16.37
				c3.6,6.38,5.47,13.43,5.62,21.17c0.14,7.48-1.37,14.53-4.53,21.16c-3.16,6.64-7.4,12.49-12.72,17.55
				c-5.32,5.07-11.4,9.08-18.24,12.04c-6.84,2.97-13.81,4.51-20.9,4.65c-2.06,0.04-4.13-0.02-6.19-0.17
				c-2.07-0.15-4.07-0.53-6.02-1.14L145.05,1075.21z M140.15,1000.07c3.89,1.35,8.09,1.97,12.61,1.89c2.58-0.05,5.08-0.39,7.52-1.01
				c2.44-0.63,4.58-1.6,6.42-2.93c1.84-1.32,3.33-3.03,4.45-5.11c1.12-2.08,1.65-4.61,1.6-7.57c-0.05-2.83-0.75-5.24-2.07-7.21
				c-1.33-1.97-3.03-3.58-5.12-4.83c-2.09-1.25-4.46-2.17-7.11-2.77c-2.66-0.59-5.33-0.87-8.04-0.81
				c-4.38,0.08-8.37,0.87-11.95,2.35L140.15,1000.07z"/>
			<path class="st2" d="M366.21,999.09c0.19,10.18-1.72,19.76-5.74,28.73c-4.02,8.97-9.45,16.78-16.29,23.42
				c-6.84,6.64-14.83,11.98-23.97,16.02c-9.14,4.04-18.68,6.15-28.6,6.34c-9.54,0.18-18.82-1.58-27.85-5.28
				c-9.03-3.7-17.09-8.77-24.17-15.21c-7.08-6.44-12.8-14-17.16-22.69c-4.35-8.68-6.62-17.99-6.81-27.91
				c-0.19-10.05,1.73-19.53,5.75-28.44c4.02-8.91,9.45-16.68,16.29-23.32c6.84-6.64,14.76-11.98,23.77-16.02
				c9.01-4.04,18.42-6.15,28.21-6.33c9.79-0.18,19.27,1.54,28.43,5.17c9.16,3.63,17.24,8.6,24.26,14.92
				c7.01,6.32,12.7,13.81,17.06,22.5C363.75,979.67,366.02,989.04,366.21,999.09z M290.42,1030.89c3.87-0.07,7.62-0.92,11.27-2.53
				c3.64-1.62,6.86-3.83,9.64-6.66c2.78-2.82,5.01-6.06,6.68-9.7c1.67-3.64,2.47-7.46,2.4-11.46c-0.08-3.99-0.99-7.84-2.73-11.55
				c-1.75-3.71-4.1-6.95-7.05-9.73c-2.95-2.78-6.32-4.97-10.08-6.58c-3.77-1.6-7.72-2.37-11.84-2.29
				c-4.13,0.08-8.07,1.02-11.84,2.83c-3.77,1.81-7.08,4.19-9.92,7.15c-2.85,2.96-5.07,6.32-6.68,10.08
				c-1.61,3.77-2.37,7.78-2.29,12.03c0.08,4,1.11,7.71,3.11,11.16c2,3.44,4.5,6.46,7.52,9.04c3.01,2.59,6.44,4.62,10.27,6.09
				C282.7,1030.26,286.55,1030.96,290.42,1030.89z"/>
			<path class="st2" d="M460.54,976.04c-5.09-3.38-10.34-6.25-15.73-8.6c-5.4-2.35-11.38-3.59-17.96-3.72
				c-1.55,0.03-3.29,0.13-5.22,0.29c-1.93,0.17-3.76,0.52-5.49,1.07c-1.73,0.55-3.17,1.38-4.3,2.5c-1.14,1.12-1.69,2.58-1.66,4.38
				c0.16,1.54,0.63,2.76,1.42,3.65c0.79,0.89,1.77,1.64,2.94,2.26c1.17,0.62,2.47,1.05,3.89,1.28c1.42,0.23,2.78,0.33,4.07,0.31
				c1.42-0.03,2.74-0.12,3.96-0.27c1.22-0.15,2.54-0.24,3.96-0.27c6.19-0.12,12.42,0.61,18.7,2.16c6.28,1.56,11.97,4.06,17.06,7.51
				c5.09,3.45,9.27,7.85,12.53,13.2c3.26,5.35,4.96,11.77,5.1,19.24c-0.12,7.48-1.79,14.32-5.03,20.5
				c-3.24,6.19-7.49,11.46-12.76,15.81c-5.27,4.35-11.17,7.75-17.7,10.2c-6.53,2.44-13.15,3.73-19.85,3.86
				c-5.29,0.1-10.71-0.32-16.27-1.24c-5.56-0.92-10.97-2.34-16.23-4.24c-5.26-1.9-10.3-4.35-15.13-7.35
				c-4.83-3-9.08-6.53-12.77-10.59l25.38-28.33c4.21,4.43,9.14,7.89,14.8,10.36c5.65,2.47,11.44,3.65,17.37,3.54
				c1.8-0.03,3.89-0.23,6.27-0.6c2.38-0.37,4.62-0.96,6.73-1.77c2.11-0.81,3.86-1.84,5.26-3.1c1.39-1.25,2.08-2.71,2.04-4.39
				c-0.03-1.55-0.47-2.8-1.33-3.75c-0.86-0.95-1.96-1.64-3.33-2.06c-1.36-0.42-2.91-0.72-4.66-0.88c-1.74-0.16-3.46-0.22-5.13-0.19
				c-1.42,0.03-2.84,0.09-4.25,0.18c-1.42,0.09-2.64,0.15-3.67,0.17c-6.19-0.01-12.34-1.12-18.43-3.33
				c-6.1-2.21-11.58-5.29-16.42-9.26c-4.85-3.97-8.8-8.76-11.87-14.38c-3.07-5.61-4.67-11.84-4.8-18.67
				c-0.14-7.6,1.47-14.27,4.84-20.01c3.37-5.74,7.73-10.49,13.08-14.27s11.29-6.62,17.82-8.56c6.54-1.93,12.96-2.95,19.28-3.07
				c10.06,0.07,19.79,1.88,29.21,5.44c9.41,3.56,17.86,8.82,25.34,15.77L460.54,976.04z"/>
			<path class="st2" d="M697.18,992.85c0.19,10.18-1.73,19.76-5.75,28.73c-4.02,8.97-9.45,16.78-16.29,23.42
				c-6.84,6.64-14.83,11.98-23.97,16.02c-9.14,4.04-18.68,6.15-28.6,6.34c-9.54,0.18-18.82-1.58-27.85-5.28
				c-9.03-3.7-17.09-8.77-24.17-15.21c-7.08-6.44-12.8-14-17.16-22.69c-4.36-8.68-6.62-17.99-6.81-27.91
				c-0.19-10.05,1.73-19.53,5.75-28.44c4.02-8.91,9.45-16.68,16.29-23.32c6.84-6.64,14.76-11.98,23.77-16.02
				c9.01-4.04,18.42-6.15,28.21-6.33c9.79-0.18,19.27,1.54,28.43,5.17c9.16,3.63,17.25,8.6,24.26,14.92
				c7.01,6.32,12.7,13.81,17.06,22.5C694.71,973.43,696.99,982.8,697.18,992.85z M621.39,1024.64c3.87-0.07,7.62-0.92,11.27-2.53
				c3.64-1.62,6.86-3.83,9.64-6.66c2.78-2.82,5.01-6.06,6.68-9.7c1.67-3.64,2.47-7.46,2.4-11.46c-0.08-3.99-0.99-7.84-2.73-11.55
				c-1.75-3.71-4.1-6.95-7.05-9.73c-2.95-2.78-6.32-4.97-10.08-6.58c-3.77-1.6-7.72-2.37-11.84-2.29
				c-4.13,0.08-8.07,1.02-11.84,2.83c-3.77,1.81-7.08,4.2-9.92,7.15c-2.84,2.96-5.07,6.32-6.67,10.08
				c-1.61,3.77-2.37,7.78-2.29,12.03c0.08,4,1.11,7.71,3.11,11.16s4.5,6.46,7.52,9.04c3.01,2.59,6.44,4.62,10.27,6.09
				C613.67,1024.02,617.52,1024.72,621.39,1024.64z"/>
			<path class="st2" d="M815.52,971.47l0.04,2.32c0.09,4.64-0.54,9.07-1.88,13.28c-1.34,4.22-3.17,8.25-5.48,12.09
				c-2.31,3.85-5.12,7.35-8.41,10.51c-3.29,3.16-6.73,5.74-10.3,7.74c2.03,5.12,5.3,9.47,9.82,13.06c4.52,3.59,9.61,5.33,15.28,5.22
				l1.55-0.03l0.75,40.02c-0.64,0.14-1.35,0.22-2.12,0.23c-0.77,0.01-1.48,0.03-2.13,0.04c-7.22,0.14-14.21-1.09-20.96-3.67
				c-6.75-2.58-12.95-6.14-18.57-10.67c-5.63-4.54-10.5-9.86-14.61-15.97c-4.11-6.11-7.01-12.76-8.69-19.95l-2.13,0.04l0.69,36.73
				l-41.18,0.78l-0.07-137.11c3.71-1.62,7.55-2.98,11.53-4.09c3.97-1.1,7.83-1.95,11.56-2.54c3.73-0.58,7.2-1.01,10.42-1.26
				c3.22-0.25,5.79-0.4,7.73-0.44c3.87,0.06,8.13,0.36,12.78,0.92c4.65,0.56,9.41,1.69,14.28,3.4c4.87,1.72,9.55,3.85,14.05,6.41
				c4.5,2.56,8.62,5.83,12.37,9.82c3.75,3.99,6.84,8.7,9.26,14.14C813.52,957.94,814.99,964.26,815.52,971.47z M747.53,986.49
				c2.08,0.86,4.6,1.27,7.57,1.21c2.58-0.05,5.08-0.42,7.52-1.11c2.43-0.69,4.58-1.7,6.42-3.02c1.84-1.32,3.29-3.06,4.35-5.21
				c1.05-2.15,1.56-4.57,1.51-7.28c-0.37-5.54-2.34-9.72-5.94-12.55c-3.6-2.83-7.85-4.2-12.74-4.11c-1.29,0.02-2.61,0.18-3.96,0.46
				c-1.35,0.29-2.6,0.63-3.75,1.04L747.53,986.49z"/>
			<path class="st2" d="M830.5,925.16c4.99-2.15,10.11-3.77,15.38-4.83c5.26-1.07,10.61-1.65,16.02-1.75
				c10.44-0.2,20.72,1.38,30.84,4.74c10.12,3.36,19.17,8.31,27.16,14.86c7.99,6.55,14.46,14.52,19.4,23.9
				c4.95,9.38,7.53,20,7.76,31.86c0.43,22.81-6.95,40-22.14,51.57c-15.19,11.57-37.93,17.64-68.21,18.21
				c-4.51,0.08-9.22,0.04-14.12-0.12c-4.9-0.17-10-0.46-15.29-0.87L830.5,925.16z M865.82,1024.09c0.9,0.11,1.81,0.19,2.71,0.24
				c0.9,0.05,1.87,0.06,2.9,0.04c4.38-0.08,8.62-0.87,12.72-2.37c4.1-1.49,7.76-3.66,11-6.49c3.23-2.83,5.81-6.36,7.73-10.59
				c1.92-4.23,2.83-9.17,2.72-14.85c-0.17-9.28-3.5-16.34-9.97-21.18c-6.47-4.84-14.93-7.16-25.37-6.97l-2.71,0.05L865.82,1024.09z"
				/>
			<path class="st2" d="M1000.58,1022.33l67.02-4.75l0.76,40.21l-103.81,1.96l-11.53-139.8l103.73-6.21l3.42,38.03l-65.51,2.4
				l1.65,15.63l53.86-4.88l2.8,35.92l-53.67,4.69L1000.58,1022.33z"/>
			<path class="st2" d="M1185.53,964.5l0.04,2.32c0.09,4.64-0.54,9.07-1.88,13.28c-1.34,4.22-3.17,8.25-5.48,12.09
				c-2.32,3.85-5.12,7.35-8.41,10.5c-3.29,3.16-6.73,5.74-10.3,7.74c2.03,5.12,5.3,9.47,9.82,13.06c4.52,3.59,9.61,5.33,15.28,5.22
				l1.55-0.03l0.75,40.02c-0.64,0.14-1.35,0.22-2.12,0.23s-1.48,0.03-2.13,0.04c-7.22,0.14-14.2-1.09-20.96-3.67
				c-6.75-2.58-12.95-6.14-18.57-10.67c-5.63-4.54-10.5-9.86-14.61-15.97c-4.11-6.11-7.01-12.76-8.69-19.95l-2.13,0.04l0.69,36.73
				l-41.18,0.78l-0.07-137.11c3.71-1.62,7.55-2.98,11.53-4.09c3.97-1.1,7.83-1.95,11.56-2.54c3.73-0.58,7.2-1.01,10.42-1.26
				c3.22-0.25,5.79-0.4,7.73-0.44c3.87,0.06,8.13,0.36,12.78,0.92c4.65,0.56,9.41,1.69,14.28,3.41c4.87,1.72,9.55,3.85,14.04,6.41
				c4.5,2.56,8.62,5.83,12.37,9.82c3.75,3.99,6.84,8.7,9.26,14.14C1183.54,950.97,1185.01,957.29,1185.53,964.5z M1117.55,979.51
				c2.08,0.86,4.6,1.27,7.57,1.21c2.58-0.05,5.08-0.42,7.52-1.11c2.43-0.69,4.58-1.7,6.42-3.02c1.84-1.32,3.29-3.06,4.35-5.21
				c1.05-2.15,1.56-4.57,1.51-7.28c-0.37-5.54-2.35-9.72-5.94-12.55c-3.6-2.83-7.85-4.2-12.75-4.11c-1.29,0.02-2.61,0.18-3.96,0.46
				c-1.35,0.29-2.6,0.63-3.75,1.04L1117.55,979.51z"/>
		</g>
	</g>
</g>
</svg>
