<?xml version="1.0" encoding="utf-8"?>
<!-- Generator: Adobe Illustrator 26.0.1, SVG Export Plug-In . SVG Version: 6.00 Build 0)  -->
<svg version="1.1" id="Layer_1" xmlns="http://www.w3.org/2000/svg" xmlns:xlink="http://www.w3.org/1999/xlink" x="0px" y="0px"
	 viewBox="0 0 1261.51 634.24" style="enable-background:new 0 0 1261.51 634.24;" xml:space="preserve">
<style type="text/css">
	.st0{fill:#FFBB01;}
	.st1{fill:#FFFFFF;}
	.st2{fill:#ED1B26;}
</style>
<g>
	<g>
		<g>
			<path class="st0" d="M176.46,328.32l-74.7,1.41L84.12,74.92c15.7-7.85,32.32-13.82,49.86-17.92c17.53-4.1,34.98-6.32,52.34-6.65
				c14.34-0.27,28.59,1.98,42.78,6.74c14.18,4.77,26.95,11.57,38.32,20.41C278.77,86.35,287.97,97,295,109.44
				c7.03,12.45,10.68,26.22,10.97,41.31c0.28,14.59-2.67,28.36-8.85,41.31c-6.17,12.95-14.45,24.37-24.83,34.25
				c-10.38,9.88-22.25,17.72-35.6,23.51c-13.35,5.79-26.95,8.81-40.78,9.07c-4.03,0.08-8.06-0.04-12.08-0.34
				c-4.03-0.3-7.95-1.04-11.74-2.23L176.46,328.32z M166.91,181.68c7.6,2.63,15.79,3.85,24.6,3.69c5.03-0.1,9.92-0.75,14.68-1.98
				c4.75-1.22,8.94-3.12,12.54-5.71c3.6-2.58,6.49-5.91,8.68-9.98c2.19-4.06,3.23-8.99,3.12-14.78c-0.1-5.53-1.45-10.22-4.04-14.08
				c-2.59-3.85-5.92-7-9.99-9.44c-4.07-2.44-8.7-4.24-13.88-5.4c-5.18-1.16-10.41-1.69-15.69-1.59c-8.55,0.16-16.33,1.69-23.31,4.59
				L166.91,181.68z"/>
			<path class="st0" d="M317.95,325.65l-2.62-278.87l80.36-1.52l2.62,278.87L317.95,325.65z"/>
			<path class="st0" d="M623.49,116.45l-103.95,131.8l102.25-1.93l1.43,75.83l-205.62,3.88l-1.41-74.7l105.08-131.82l-97.72,1.84
				l-1.42-75.46l199.96-3.77L623.49,116.45z"/>
			<path class="st0" d="M846.46,112.25l-103.95,131.8l102.25-1.93l1.43,75.83l-205.62,3.88l-1.41-74.7l105.08-131.82l-97.72,1.84
				L645.1,41.7l199.96-3.77L846.46,112.25z"/>
			<path class="st0" d="M1059.32,252.03L965,253.81l-31.65,62.87l-72.24-28.08l116.73-254.7l86.79-0.88
				c7.21,22.26,14.99,44.51,23.34,66.74c8.35,22.24,16.75,44.41,25.22,66.52c8.47,22.11,16.81,44.22,25.03,66.33
				c8.21,22.11,15.93,44.3,23.15,66.55l-79.25,20.75L1059.32,252.03z M1047.08,183.57l-27.4-71.95l-31.46,73.06L1047.08,183.57z"/>
		</g>
	</g>
	<g>
		<g>
			<g>
				<path class="st1" d="M188.63,50.33c13.56,0,27.05,2.26,40.47,6.76c14.18,4.77,26.95,11.57,38.32,20.41
					C278.77,86.35,287.97,97,295,109.44c7.03,12.45,10.68,26.22,10.97,41.31c0.28,14.59-2.67,28.36-8.85,41.31
					c-6.17,12.95-14.45,24.37-24.83,34.25c-10.38,9.88-22.25,17.72-35.6,23.51c-13.35,5.79-26.95,8.81-40.78,9.07
					c-0.81,0.02-1.63,0.02-2.44,0.02c-3.21,0-6.43-0.12-9.64-0.36c-4.03-0.3-7.95-1.04-11.74-2.23l4.38,72l-74.7,1.41L84.12,74.92
					c15.7-7.85,32.32-13.82,49.86-17.92c17.53-4.1,34.98-6.32,52.34-6.65C187.09,50.33,187.86,50.33,188.63,50.33 M189.94,185.38
					c0.52,0,1.04-0.01,1.57-0.01c5.03-0.1,9.92-0.75,14.68-1.98c4.75-1.22,8.94-3.12,12.54-5.71c3.6-2.58,6.49-5.91,8.68-9.98
					c2.19-4.06,3.23-8.99,3.12-14.78c-0.1-5.53-1.45-10.22-4.04-14.08c-2.59-3.85-5.92-7-9.99-9.44c-4.07-2.44-8.7-4.24-13.88-5.4
					c-4.77-1.07-9.59-1.6-14.44-1.6c-0.42,0-0.83,0-1.25,0.01c-8.55,0.16-16.33,1.69-23.31,4.59l3.3,54.66
					C174.05,184.15,181.72,185.38,189.94,185.38 M188.63,41.82c-0.82,0-1.64,0.01-2.47,0.02c-17.88,0.34-36.09,2.65-54.11,6.87
					c-18.1,4.24-35.5,10.49-51.72,18.6c-3.07,1.54-4.92,4.77-4.68,8.19l17.64,254.81c0.31,4.47,4.02,7.92,8.48,7.92
					c0.05,0,0.11,0,0.16,0l74.7-1.41c2.32-0.04,4.52-1.03,6.09-2.73c1.57-1.7,2.38-3.97,2.24-6.29l-3.71-60.95
					c0.65,0.07,1.3,0.13,1.95,0.18c3.4,0.26,6.86,0.39,10.28,0.39c0.87,0,1.73-0.01,2.6-0.02c14.89-0.28,29.69-3.57,44-9.77
					c14.21-6.16,27.02-14.62,38.08-25.15c11.08-10.55,20.05-22.91,26.64-36.75c6.72-14.09,9.97-29.27,9.67-45.13
					c-0.31-16.44-4.37-31.69-12.07-45.33c-7.55-13.37-17.57-24.97-29.77-34.47c-12.06-9.39-25.8-16.71-40.83-21.76
					C217.56,44.25,203.03,41.82,188.63,41.82L188.63,41.82z M172.49,132.95c4.51-1.24,9.4-1.92,14.6-2.02
					c0.36-0.01,0.73-0.01,1.09-0.01c4.2,0,8.44,0.47,12.59,1.4c4.26,0.96,8.09,2.44,11.37,4.4c3.01,1.8,5.4,4.06,7.3,6.88
					c1.67,2.49,2.52,5.6,2.59,9.49c0.08,4.28-0.63,7.85-2.1,10.59c-1.58,2.94-3.59,5.26-6.15,7.1c-2.72,1.95-5.98,3.43-9.69,4.38
					c-4.09,1.05-8.37,1.63-12.73,1.71c-0.47,0.01-0.94,0.01-1.41,0.01c-5.21,0-10.2-0.56-14.9-1.68L172.49,132.95L172.49,132.95z"/>
			</g>
			<g>
				<path class="st1" d="M395.69,45.27l2.62,278.87l-80.36,1.52l-2.62-278.87L395.69,45.27 M395.69,36.76c-0.05,0-0.11,0-0.16,0
					l-80.36,1.52c-4.66,0.09-8.39,3.92-8.34,8.58l2.62,278.87c0.02,2.27,0.95,4.44,2.58,6.02c1.59,1.54,3.72,2.41,5.93,2.41
					c0.05,0,0.11,0,0.16,0l80.36-1.52c4.66-0.09,8.39-3.92,8.34-8.58L404.2,45.19c-0.02-2.27-0.95-4.44-2.58-6.02
					C400.03,37.63,397.9,36.76,395.69,36.76L395.69,36.76z"/>
			</g>
			<g>
				<path class="st1" d="M622.09,42.13l1.4,74.33l-103.95,131.8l102.25-1.93l1.43,75.83l-205.62,3.88l-1.41-74.7l105.08-131.82
					l-97.72,1.84l-1.42-75.46L622.09,42.13 M622.09,33.63c-0.05,0-0.11,0-0.16,0L421.96,37.4c-2.25,0.04-4.4,0.98-5.97,2.6
					c-1.56,1.62-2.42,3.8-2.38,6.06l1.42,75.46c0.09,4.64,3.88,8.34,8.5,8.34c0.05,0,0.11,0,0.16,0l79.63-1.5l-93.81,117.67
					c-1.23,1.55-1.89,3.48-1.85,5.46l1.41,74.7c0.09,4.64,3.88,8.34,8.5,8.34c0.05,0,0.11,0,0.16,0l205.62-3.88
					c2.26-0.04,4.4-0.98,5.97-2.6c1.56-1.62,2.42-3.8,2.38-6.06l-1.43-75.83c-0.09-4.64-3.88-8.34-8.5-8.34c-0.05,0-0.11,0-0.16,0
					l-84.28,1.59l92.82-117.69c1.22-1.54,1.86-3.46,1.83-5.43l-1.4-74.33C630.5,37.33,626.71,33.63,622.09,33.63L622.09,33.63z"/>
			</g>
			<g>
				<path class="st1" d="M845.06,37.93l1.4,74.33l-103.95,131.8l102.25-1.93l1.43,75.83l-205.62,3.88l-1.41-74.7l105.08-131.82
					l-97.72,1.84L645.1,41.7L845.06,37.93 M845.06,29.42c-0.05,0-0.11,0-0.16,0l-199.96,3.77c-2.26,0.04-4.4,0.98-5.97,2.6
					s-2.42,3.8-2.38,6.06l1.42,75.46c0.09,4.64,3.88,8.34,8.5,8.34c0.05,0,0.11,0,0.16,0l79.63-1.5l-93.8,117.67
					c-1.23,1.55-1.89,3.48-1.85,5.46l1.41,74.7c0.04,2.26,0.98,4.4,2.6,5.97c1.59,1.53,3.7,2.38,5.9,2.38c0.05,0,0.11,0,0.16,0
					l205.62-3.88c4.7-0.09,8.43-3.97,8.34-8.66l-1.43-75.83c-0.04-2.26-0.98-4.4-2.6-5.97c-1.59-1.53-3.7-2.38-5.9-2.38
					c-0.05,0-0.11,0-0.16,0l-84.28,1.59l92.82-117.69c1.22-1.54,1.86-3.46,1.83-5.43l-1.4-74.33
					C853.47,33.12,849.68,29.42,845.06,29.42L845.06,29.42z"/>
			</g>
			<g>
				<path class="st1" d="M1064.63,33.03c7.21,22.26,14.99,44.51,23.34,66.74c8.35,22.24,16.75,44.41,25.22,66.52
					c8.47,22.11,16.81,44.22,25.03,66.33c8.21,22.11,15.93,44.3,23.15,66.55l-79.25,20.75l-22.79-67.89L965,253.81l-31.65,62.87
					l-72.24-28.08l116.73-254.7L1064.63,33.03 M988.23,184.69l58.86-1.11l-27.4-71.95L988.23,184.69 M1064.63,24.52
					c-0.03,0-0.06,0-0.09,0l-86.79,0.88c-3.29,0.03-6.27,1.97-7.64,4.96l-116.73,254.7c-0.98,2.13-1.03,4.57-0.15,6.74
					s2.62,3.88,4.8,4.73l72.24,28.08c1.01,0.39,2.05,0.58,3.08,0.58c3.13,0,6.11-1.73,7.6-4.68l29.34-58.29l82.96-1.56l20.81,61.97
					c1.19,3.53,4.49,5.8,8.06,5.8c0.71,0,1.44-0.09,2.16-0.28l79.25-20.75c2.26-0.59,4.18-2.09,5.31-4.14
					c1.12-2.05,1.35-4.48,0.63-6.7c-7.2-22.22-15.03-44.72-23.26-66.89c-8.19-22.04-16.62-44.38-25.06-66.41
					c-8.25-21.53-16.73-43.9-25.2-66.46c-8.27-22.04-16.08-44.37-23.21-66.38C1071.58,26.9,1068.31,24.52,1064.63,24.52
					L1064.63,24.52z M1001.25,175.93l17.95-41.68l15.63,41.05L1001.25,175.93L1001.25,175.93z"/>
			</g>
		</g>
	</g>
	<polygon class="st2" points="43.67,363.73 53.67,601.21 1207.85,601.21 1217.85,341.22 	"/>
	<g>
		<g>
			<path class="st1" d="M139.73,563.19l-38.28,0.72l-9.04-130.56c8.05-4.02,16.56-7.08,25.55-9.18c8.98-2.1,17.92-3.24,26.82-3.41
				c7.35-0.14,14.65,1.01,21.92,3.46c7.27,2.44,13.81,5.93,19.63,10.46c5.82,4.53,10.53,9.99,14.14,16.37
				c3.6,6.38,5.47,13.43,5.62,21.17c0.14,7.48-1.37,14.53-4.53,21.16c-3.16,6.64-7.4,12.49-12.72,17.55
				c-5.32,5.07-11.4,9.08-18.24,12.04c-6.84,2.97-13.81,4.51-20.9,4.65c-2.06,0.04-4.13-0.02-6.19-0.17
				c-2.07-0.15-4.07-0.53-6.02-1.14L139.73,563.19z M134.83,488.05c3.89,1.35,8.09,1.97,12.61,1.89c2.58-0.05,5.08-0.39,7.52-1.01
				c2.44-0.63,4.58-1.6,6.42-2.93c1.84-1.32,3.33-3.03,4.45-5.11c1.12-2.08,1.65-4.61,1.6-7.57c-0.05-2.83-0.75-5.24-2.07-7.21
				c-1.33-1.97-3.03-3.58-5.12-4.83c-2.09-1.25-4.46-2.17-7.11-2.77c-2.66-0.59-5.33-0.87-8.04-0.81
				c-4.38,0.08-8.37,0.87-11.95,2.35L134.83,488.05z"/>
			<path class="st1" d="M360.89,487.08c0.19,10.18-1.72,19.76-5.74,28.73c-4.02,8.97-9.45,16.78-16.29,23.42
				c-6.84,6.64-14.83,11.98-23.97,16.02c-9.14,4.04-18.68,6.15-28.6,6.34c-9.54,0.18-18.82-1.58-27.85-5.28
				c-9.03-3.7-17.09-8.77-24.17-15.21c-7.08-6.44-12.8-14-17.16-22.69c-4.35-8.68-6.62-17.99-6.81-27.91
				c-0.19-10.05,1.73-19.53,5.75-28.44c4.02-8.91,9.45-16.68,16.29-23.32c6.84-6.64,14.76-11.98,23.77-16.02
				c9.01-4.04,18.42-6.15,28.21-6.33c9.79-0.18,19.27,1.54,28.43,5.17c9.16,3.63,17.24,8.6,24.26,14.92
				c7.01,6.32,12.7,13.81,17.06,22.5C358.42,467.66,360.7,477.02,360.89,487.08z M285.1,518.87c3.87-0.07,7.62-0.92,11.27-2.53
				c3.64-1.62,6.86-3.83,9.64-6.66c2.78-2.82,5.01-6.06,6.68-9.7c1.67-3.64,2.47-7.46,2.4-11.46c-0.08-3.99-0.99-7.84-2.73-11.55
				c-1.75-3.71-4.1-6.95-7.05-9.73c-2.95-2.78-6.32-4.97-10.08-6.58c-3.77-1.6-7.72-2.37-11.84-2.29
				c-4.13,0.08-8.07,1.02-11.84,2.83c-3.77,1.81-7.08,4.19-9.92,7.15c-2.85,2.96-5.07,6.32-6.68,10.08
				c-1.61,3.77-2.37,7.78-2.29,12.03c0.08,4,1.11,7.71,3.11,11.16c2,3.44,4.5,6.46,7.52,9.04c3.01,2.59,6.44,4.62,10.27,6.09
				C277.38,518.24,281.23,518.94,285.1,518.87z"/>
			<path class="st1" d="M455.21,464.02c-5.09-3.38-10.34-6.25-15.73-8.6c-5.4-2.35-11.38-3.59-17.96-3.72
				c-1.55,0.03-3.29,0.13-5.22,0.29c-1.93,0.17-3.76,0.52-5.49,1.07c-1.73,0.55-3.17,1.38-4.3,2.5c-1.14,1.12-1.69,2.58-1.66,4.38
				c0.16,1.54,0.63,2.76,1.42,3.65c0.79,0.89,1.77,1.64,2.94,2.26c1.17,0.62,2.47,1.05,3.89,1.28c1.42,0.23,2.78,0.33,4.07,0.31
				c1.42-0.03,2.74-0.12,3.96-0.27c1.22-0.15,2.54-0.24,3.96-0.27c6.19-0.12,12.42,0.61,18.7,2.16c6.28,1.56,11.97,4.06,17.06,7.51
				c5.09,3.45,9.27,7.85,12.53,13.2c3.26,5.35,4.96,11.77,5.1,19.24c-0.12,7.48-1.79,14.32-5.03,20.5
				c-3.24,6.19-7.49,11.46-12.76,15.81c-5.27,4.35-11.17,7.75-17.7,10.2c-6.53,2.44-13.15,3.73-19.85,3.86
				c-5.29,0.1-10.71-0.32-16.27-1.24c-5.56-0.92-10.97-2.34-16.23-4.24c-5.26-1.9-10.3-4.35-15.13-7.35
				c-4.83-3-9.08-6.53-12.77-10.59l25.38-28.33c4.21,4.43,9.14,7.89,14.8,10.36c5.65,2.47,11.44,3.65,17.37,3.54
				c1.8-0.03,3.89-0.23,6.27-0.6c2.38-0.37,4.62-0.96,6.73-1.77c2.11-0.81,3.86-1.84,5.26-3.1c1.39-1.25,2.08-2.71,2.04-4.39
				c-0.03-1.55-0.47-2.8-1.33-3.75c-0.86-0.95-1.96-1.64-3.33-2.06c-1.36-0.42-2.91-0.72-4.66-0.88c-1.74-0.16-3.46-0.22-5.13-0.19
				c-1.42,0.03-2.84,0.09-4.25,0.18c-1.42,0.09-2.64,0.15-3.67,0.17c-6.19-0.01-12.34-1.12-18.43-3.33
				c-6.1-2.21-11.58-5.29-16.42-9.26c-4.85-3.97-8.8-8.76-11.87-14.38c-3.07-5.61-4.67-11.84-4.8-18.67
				c-0.14-7.6,1.47-14.27,4.84-20.01c3.37-5.74,7.73-10.49,13.08-14.27s11.29-6.62,17.82-8.56c6.54-1.93,12.96-2.95,19.28-3.07
				c10.06,0.07,19.79,1.88,29.21,5.44c9.41,3.56,17.86,8.82,25.34,15.77L455.21,464.02z"/>
			<path class="st1" d="M691.86,480.83c0.19,10.18-1.73,19.76-5.75,28.73c-4.02,8.97-9.45,16.78-16.29,23.42
				c-6.84,6.64-14.83,11.98-23.97,16.02c-9.14,4.04-18.68,6.15-28.6,6.34c-9.54,0.18-18.82-1.58-27.85-5.28
				c-9.03-3.7-17.09-8.77-24.17-15.21c-7.08-6.44-12.8-14-17.16-22.69c-4.36-8.68-6.62-17.99-6.81-27.91
				c-0.19-10.05,1.73-19.53,5.75-28.44c4.02-8.91,9.45-16.68,16.29-23.32c6.84-6.64,14.76-11.98,23.77-16.02
				c9.01-4.04,18.42-6.15,28.21-6.33c9.79-0.18,19.27,1.54,28.43,5.17c9.16,3.63,17.25,8.6,24.26,14.92
				c7.01,6.32,12.7,13.81,17.06,22.5C689.39,461.41,691.67,470.78,691.86,480.83z M616.06,512.63c3.87-0.07,7.62-0.92,11.27-2.53
				c3.64-1.62,6.86-3.83,9.64-6.66c2.78-2.82,5.01-6.06,6.68-9.7c1.67-3.64,2.47-7.46,2.4-11.46c-0.08-3.99-0.99-7.84-2.73-11.55
				c-1.75-3.71-4.1-6.95-7.05-9.73c-2.95-2.78-6.32-4.97-10.08-6.58c-3.77-1.6-7.72-2.37-11.84-2.29
				c-4.13,0.08-8.07,1.02-11.84,2.83c-3.77,1.81-7.08,4.2-9.92,7.15c-2.84,2.96-5.07,6.32-6.67,10.08
				c-1.61,3.77-2.37,7.78-2.29,12.03c0.08,4,1.11,7.71,3.11,11.16s4.5,6.46,7.52,9.04c3.01,2.59,6.44,4.62,10.27,6.09
				C608.35,512,612.2,512.7,616.06,512.63z"/>
			<path class="st1" d="M810.19,459.46l0.04,2.32c0.09,4.64-0.54,9.07-1.88,13.28c-1.34,4.22-3.17,8.25-5.48,12.09
				c-2.31,3.85-5.12,7.35-8.41,10.51c-3.29,3.16-6.73,5.74-10.3,7.74c2.03,5.12,5.3,9.47,9.82,13.06c4.52,3.59,9.61,5.33,15.28,5.22
				l1.55-0.03l0.75,40.02c-0.64,0.14-1.35,0.22-2.12,0.23c-0.77,0.01-1.48,0.03-2.13,0.04c-7.22,0.14-14.21-1.09-20.96-3.67
				c-6.75-2.58-12.95-6.14-18.57-10.67c-5.63-4.54-10.5-9.86-14.61-15.97c-4.11-6.11-7.01-12.76-8.69-19.95l-2.13,0.04l0.69,36.73
				l-41.18,0.78l-0.07-137.11c3.71-1.62,7.55-2.98,11.53-4.09c3.97-1.1,7.83-1.95,11.56-2.54c3.73-0.58,7.2-1.01,10.42-1.26
				c3.22-0.25,5.79-0.4,7.73-0.44c3.87,0.06,8.13,0.36,12.78,0.92c4.65,0.56,9.41,1.69,14.28,3.4c4.87,1.72,9.55,3.85,14.05,6.41
				c4.5,2.56,8.62,5.83,12.37,9.82c3.75,3.99,6.84,8.7,9.26,14.14C808.2,445.93,809.67,452.25,810.19,459.46z M742.21,474.47
				c2.08,0.86,4.6,1.27,7.57,1.21c2.58-0.05,5.08-0.42,7.52-1.11c2.43-0.69,4.58-1.7,6.42-3.02c1.84-1.32,3.29-3.06,4.35-5.21
				c1.05-2.15,1.56-4.57,1.51-7.28c-0.37-5.54-2.34-9.72-5.94-12.55c-3.6-2.83-7.85-4.2-12.74-4.11c-1.29,0.02-2.61,0.18-3.96,0.46
				c-1.35,0.29-2.6,0.63-3.75,1.04L742.21,474.47z"/>
			<path class="st1" d="M825.18,413.15c4.99-2.15,10.11-3.77,15.38-4.83c5.26-1.07,10.61-1.65,16.02-1.75
				c10.44-0.2,20.72,1.38,30.84,4.74c10.12,3.36,19.17,8.31,27.16,14.86c7.99,6.55,14.46,14.52,19.4,23.9
				c4.95,9.38,7.53,20,7.76,31.86c0.43,22.81-6.95,40-22.14,51.57c-15.19,11.57-37.93,17.64-68.21,18.21
				c-4.51,0.08-9.22,0.04-14.12-0.12c-4.9-0.17-10-0.46-15.29-0.87L825.18,413.15z M860.5,512.08c0.9,0.11,1.81,0.19,2.71,0.24
				c0.9,0.05,1.87,0.06,2.9,0.04c4.38-0.08,8.62-0.87,12.72-2.37c4.1-1.49,7.76-3.66,11-6.49c3.23-2.83,5.81-6.36,7.73-10.59
				c1.92-4.23,2.83-9.17,2.72-14.85c-0.17-9.28-3.5-16.34-9.97-21.18c-6.47-4.84-14.93-7.16-25.37-6.97l-2.71,0.05L860.5,512.08z"/>
			<path class="st1" d="M995.26,510.31l67.02-4.75l0.76,40.21l-103.81,1.96l-11.53-139.8l103.73-6.21l3.42,38.03l-65.51,2.4
				l1.65,15.63l53.86-4.88l2.8,35.92l-53.67,4.69L995.26,510.31z"/>
			<path class="st1" d="M1180.21,452.48l0.04,2.32c0.09,4.64-0.54,9.07-1.88,13.28c-1.34,4.22-3.17,8.25-5.48,12.09
				c-2.32,3.85-5.12,7.35-8.41,10.5c-3.29,3.16-6.73,5.74-10.3,7.74c2.03,5.12,5.3,9.47,9.82,13.06c4.52,3.59,9.61,5.33,15.28,5.22
				l1.55-0.03l0.75,40.02c-0.64,0.14-1.35,0.22-2.12,0.23s-1.48,0.03-2.13,0.04c-7.22,0.14-14.2-1.09-20.96-3.67
				c-6.75-2.58-12.95-6.14-18.57-10.67c-5.63-4.54-10.5-9.86-14.61-15.97c-4.11-6.11-7.01-12.76-8.69-19.95l-2.13,0.04l0.69,36.73
				l-41.18,0.78l-0.07-137.11c3.71-1.62,7.55-2.98,11.53-4.09c3.97-1.1,7.83-1.95,11.56-2.54c3.73-0.58,7.2-1.01,10.42-1.26
				c3.22-0.25,5.79-0.4,7.73-0.44c3.87,0.06,8.13,0.36,12.78,0.92c4.65,0.56,9.41,1.69,14.28,3.41c4.87,1.72,9.55,3.85,14.04,6.41
				c4.5,2.56,8.62,5.83,12.37,9.82c3.75,3.99,6.84,8.7,9.26,14.14C1178.21,438.95,1179.69,445.27,1180.21,452.48z M1112.23,467.49
				c2.08,0.86,4.6,1.27,7.57,1.21c2.58-0.05,5.08-0.42,7.52-1.11c2.43-0.69,4.58-1.7,6.42-3.02c1.84-1.32,3.29-3.06,4.35-5.21
				c1.05-2.15,1.56-4.57,1.51-7.28c-0.37-5.54-2.35-9.72-5.94-12.55c-3.6-2.83-7.85-4.2-12.75-4.11c-1.29,0.02-2.61,0.18-3.96,0.46
				c-1.35,0.29-2.6,0.63-3.75,1.04L1112.23,467.49z"/>
		</g>
	</g>
</g>
</svg>
