<?xml version="1.0" encoding="utf-8"?>
<!-- Generator: Adobe Illustrator 26.3.1, SVG Export Plug-In . SVG Version: 6.00 Build 0)  -->
<svg version="1.1" id="Layer_1" xmlns="http://www.w3.org/2000/svg" xmlns:xlink="http://www.w3.org/1999/xlink" x="0px" y="0px"
	 viewBox="0 0 24 24" style="enable-background:new 0 0 24 24;" xml:space="preserve">
<style type="text/css">
	.st0{fill-rule:evenodd;clip-rule:evenodd;}
	.st1{fill:#FFFFFF;}
</style>
<path class="st0" d="M2,6C0.9,6,0,6.9,0,8v8c0,1.1,0.9,2,2,2h20c1.1,0,2-0.9,2-2V8c0-1.1-0.9-2-2-2H2z"/>
<path class="st1" d="M6,12c0,0.6-0.4,1-1,1s-1-0.4-1-1s0.4-1,1-1S6,11.4,6,12z"/>
<path class="st1" d="M9,13c0.6,0,1-0.4,1-1s-0.4-1-1-1c-0.6,0-1,0.4-1,1S8.4,13,9,13z"/>
<path class="st1" d="M14,12c0,0.6-0.4,1-1,1s-1-0.4-1-1s0.4-1,1-1S14,11.4,14,12z"/>
<path class="st1" d="M20,11h-4v2h4V11z"/>
</svg>
