<?xml version="1.0" encoding="utf-8"?>
<!-- Generator: Adobe Illustrator 26.3.1, SVG Export Plug-In . SVG Version: 6.00 Build 0)  -->
<svg version="1.1" id="Layer_1" xmlns="http://www.w3.org/2000/svg" xmlns:xlink="http://www.w3.org/1999/xlink" x="0px" y="0px"
	 viewBox="0 0 24 24" style="enable-background:new 0 0 24 24;" xml:space="preserve">
<style type="text/css">
	.st0{fill:none;stroke:#000000;stroke-miterlimit:10;}
</style>
<path class="st0" d="M22,12c0-1.3-0.3-2.6-0.8-3.8C20.7,7,20,5.9,19.1,4.9c-0.9-0.9-2-1.7-3.2-2.2C14.6,2.3,13.3,2,12,2v2
	c1.1,0,2.1,0.2,3.1,0.6c1,0.4,1.9,1,2.6,1.7C18.4,7.1,19,8,19.4,8.9c0.4,1,0.6,2,0.6,3.1H22z"/>
<path class="st0" d="M2,10V5c0-0.6,0.4-1,1-1h5c0.6,0,1,0.4,1,1v4c0,0.6-0.4,1-1,1H6c0,4.4,3.6,8,8,8v-2c0-0.6,0.4-1,1-1h4
	c0.6,0,1,0.4,1,1v5c0,0.6-0.4,1-1,1h-5C7.4,22,2,16.6,2,10z"/>
<path class="st0" d="M17.5,9.7c0.3,0.7,0.5,1.5,0.5,2.3h-1.8c0-0.6-0.1-1.1-0.3-1.6c-0.2-0.5-0.5-1-0.9-1.4
	c-0.4-0.4-0.9-0.7-1.4-0.9c-0.5-0.2-1.1-0.3-1.6-0.3V6c0.8,0,1.6,0.2,2.3,0.5c0.7,0.3,1.4,0.7,1.9,1.3C16.8,8.3,17.2,9,17.5,9.7z"/>
</svg>
